<svg width="315" height="184" viewBox="0 0 315 184" fill="none" xmlns="http://www.w3.org/2000/svg">
<rect width="315" height="184" rx="30" fill="url(#paint0_linear_24_55)"/>
<mask id="mask0_24_55" style="mask-type:alpha" maskUnits="userSpaceOnUse" x="0" y="0" width="315" height="184">
<rect width="315" height="184" rx="30" fill="#C7C7B6"/>
</mask>
<g mask="url(#mask0_24_55)">
<ellipse opacity="0.1" cx="24.5" cy="213" rx="160.5" ry="113" fill="black"/>
<ellipse opacity="0.08" cx="290.5" cy="-29" rx="160.5" ry="113" fill="black"/>
<path opacity="0.9" d="M31.4746 24.6543H34.2578L38.3789 36.7832L42.4707 24.6543H45.2246V39H43.3789V30.5332C43.3789 30.2402 43.3854 29.7552 43.3984 29.0781C43.4115 28.401 43.418 27.6751 43.418 26.9004L39.3262 39H37.4023L33.2812 26.9004V27.3398C33.2812 27.6914 33.2878 28.2285 33.3008 28.9512C33.3203 29.6673 33.3301 30.1947 33.3301 30.5332V39H31.4746V24.6543ZM49.7969 36.2168C49.7969 36.7246 49.9824 37.125 50.3535 37.418C50.7246 37.7109 51.1641 37.8574 51.6719 37.8574C52.2904 37.8574 52.8893 37.7142 53.4688 37.4277C54.4453 36.9525 54.9336 36.1745 54.9336 35.0938V33.6777C54.7188 33.8145 54.4421 33.9284 54.1035 34.0195C53.765 34.1107 53.4329 34.1758 53.1074 34.2148L52.043 34.3516C51.4049 34.4362 50.9264 34.5697 50.6074 34.752C50.0671 35.0579 49.7969 35.5462 49.7969 36.2168ZM54.0547 32.6621C54.4583 32.61 54.7285 32.4408 54.8652 32.1543C54.9434 31.998 54.9824 31.7734 54.9824 31.4805C54.9824 30.8815 54.7676 30.4486 54.3379 30.1816C53.9147 29.9082 53.306 29.7715 52.5117 29.7715C51.5938 29.7715 50.9427 30.0189 50.5586 30.5137C50.3438 30.7871 50.2038 31.194 50.1387 31.7344H48.498C48.5306 30.4453 48.9473 29.5501 49.748 29.0488C50.5553 28.541 51.4896 28.2871 52.5508 28.2871C53.7812 28.2871 54.7806 28.5215 55.5488 28.9902C56.3105 29.459 56.6914 30.1882 56.6914 31.1777V37.2031C56.6914 37.3854 56.7272 37.5319 56.7988 37.6426C56.877 37.7533 57.0365 37.8086 57.2773 37.8086C57.3555 37.8086 57.4434 37.8053 57.541 37.7988C57.6387 37.7858 57.7428 37.7695 57.8535 37.75V39.0488C57.5801 39.127 57.3717 39.1758 57.2285 39.1953C57.0853 39.2148 56.89 39.2246 56.6426 39.2246C56.0371 39.2246 55.5977 39.0098 55.3242 38.5801C55.181 38.3522 55.0801 38.0299 55.0215 37.6133C54.6634 38.082 54.1491 38.4889 53.4785 38.834C52.8079 39.179 52.069 39.3516 51.2617 39.3516C50.2917 39.3516 49.4974 39.0586 48.8789 38.4727C48.2669 37.8802 47.9609 37.1413 47.9609 36.2559C47.9609 35.2858 48.2637 34.5339 48.8691 34C49.4746 33.4661 50.2689 33.1374 51.252 33.0137L54.0547 32.6621ZM61.127 35.7188C61.179 36.3047 61.3255 36.7539 61.5664 37.0664C62.0091 37.6328 62.7773 37.916 63.8711 37.916C64.5221 37.916 65.0951 37.776 65.5898 37.4961C66.0846 37.2096 66.332 36.7702 66.332 36.1777C66.332 35.7285 66.1335 35.3867 65.7363 35.1523C65.4824 35.0091 64.9811 34.8431 64.2324 34.6543L62.8359 34.3027C61.944 34.0814 61.2865 33.834 60.8633 33.5605C60.1081 33.0853 59.7305 32.4277 59.7305 31.5879C59.7305 30.5983 60.0853 29.7975 60.7949 29.1855C61.5111 28.5736 62.4714 28.2676 63.6758 28.2676C65.2513 28.2676 66.3874 28.7298 67.084 29.6543C67.5202 30.2402 67.7318 30.8717 67.7188 31.5488H66.0586C66.026 31.1517 65.8861 30.7904 65.6387 30.4648C65.235 30.0026 64.5352 29.7715 63.5391 29.7715C62.875 29.7715 62.3704 29.8984 62.0254 30.1523C61.6868 30.4062 61.5176 30.7415 61.5176 31.1582C61.5176 31.6139 61.7422 31.9785 62.1914 32.252C62.4518 32.4147 62.8359 32.5579 63.3438 32.6816L64.5059 32.9648C65.7689 33.2708 66.6152 33.5671 67.0449 33.8535C67.7285 34.3027 68.0703 35.0091 68.0703 35.9727C68.0703 36.9036 67.7155 37.7077 67.0059 38.3848C66.3027 39.0618 65.2285 39.4004 63.7832 39.4004C62.2272 39.4004 61.1237 39.0488 60.4727 38.3457C59.8281 37.6361 59.4831 36.7604 59.4375 35.7188H61.127ZM70.9336 25.6211H72.7109V28.541H74.3809V29.9766H72.7109V36.8027C72.7109 37.1673 72.8346 37.4115 73.082 37.5352C73.2188 37.6068 73.4466 37.6426 73.7656 37.6426C73.8503 37.6426 73.9414 37.6426 74.0391 37.6426C74.1367 37.6361 74.2507 37.6263 74.3809 37.6133V39C74.179 39.0586 73.9674 39.1009 73.7461 39.127C73.5312 39.153 73.2969 39.166 73.043 39.166C72.2227 39.166 71.666 38.9577 71.373 38.541C71.0801 38.1178 70.9336 37.571 70.9336 36.9004V29.9766H69.5176V28.541H70.9336V25.6211ZM81.0039 28.3066C81.7461 28.3066 82.4655 28.4824 83.1621 28.834C83.8587 29.179 84.3893 29.6283 84.7539 30.1816C85.1055 30.709 85.3398 31.3242 85.457 32.0273C85.5612 32.5091 85.6133 33.2773 85.6133 34.332H77.9473C77.9798 35.3932 78.2305 36.2461 78.6992 36.8906C79.168 37.5286 79.8939 37.8477 80.877 37.8477C81.7949 37.8477 82.5273 37.5449 83.0742 36.9395C83.3867 36.5879 83.6081 36.181 83.7383 35.7188H85.4668C85.4212 36.1029 85.2682 36.5326 85.0078 37.0078C84.7539 37.4766 84.4674 37.8607 84.1484 38.1602C83.6146 38.681 82.9538 39.0326 82.166 39.2148C81.7428 39.319 81.2643 39.3711 80.7305 39.3711C79.4284 39.3711 78.3249 38.8991 77.4199 37.9551C76.515 37.0046 76.0625 35.6764 76.0625 33.9707C76.0625 32.291 76.5182 30.9271 77.4297 29.8789C78.3411 28.8307 79.5326 28.3066 81.0039 28.3066ZM83.8066 32.9355C83.735 32.1738 83.569 31.5651 83.3086 31.1094C82.8268 30.263 82.0228 29.8398 80.8965 29.8398C80.0892 29.8398 79.4121 30.1328 78.8652 30.7188C78.3184 31.2982 78.0286 32.0371 77.9961 32.9355H83.8066ZM88.3301 28.541H90V30.3477C90.1367 29.9961 90.472 29.5697 91.0059 29.0684C91.5397 28.5605 92.1549 28.3066 92.8516 28.3066C92.8841 28.3066 92.9395 28.3099 93.0176 28.3164C93.0957 28.3229 93.2292 28.3359 93.418 28.3555V30.2109C93.3138 30.1914 93.2161 30.1784 93.125 30.1719C93.0404 30.1654 92.946 30.1621 92.8418 30.1621C91.9564 30.1621 91.276 30.4486 90.8008 31.0215C90.3255 31.5879 90.0879 32.2422 90.0879 32.9844V39H88.3301V28.541ZM99.4746 28.2383C100.653 28.2383 101.61 28.5247 102.346 29.0977C103.088 29.6706 103.534 30.6569 103.684 32.0566H101.975C101.87 31.4121 101.633 30.8783 101.262 30.4551C100.891 30.0254 100.295 29.8105 99.4746 29.8105C98.3548 29.8105 97.554 30.3574 97.0723 31.4512C96.7598 32.1608 96.6035 33.0365 96.6035 34.0781C96.6035 35.1263 96.8249 36.0085 97.2676 36.7246C97.7103 37.4408 98.4069 37.7988 99.3574 37.7988C100.087 37.7988 100.663 37.5775 101.086 37.1348C101.516 36.6855 101.812 36.0736 101.975 35.2988H103.684C103.488 36.6855 103 37.7012 102.219 38.3457C101.438 38.9837 100.438 39.3027 99.2207 39.3027C97.8535 39.3027 96.763 38.8047 95.9492 37.8086C95.1354 36.806 94.7285 35.556 94.7285 34.0586C94.7285 32.2227 95.1745 30.7936 96.0664 29.7715C96.9583 28.7493 98.0944 28.2383 99.4746 28.2383ZM107.289 36.2168C107.289 36.7246 107.475 37.125 107.846 37.418C108.217 37.7109 108.656 37.8574 109.164 37.8574C109.783 37.8574 110.382 37.7142 110.961 37.4277C111.938 36.9525 112.426 36.1745 112.426 35.0938V33.6777C112.211 33.8145 111.934 33.9284 111.596 34.0195C111.257 34.1107 110.925 34.1758 110.6 34.2148L109.535 34.3516C108.897 34.4362 108.419 34.5697 108.1 34.752C107.559 35.0579 107.289 35.5462 107.289 36.2168ZM111.547 32.6621C111.951 32.61 112.221 32.4408 112.357 32.1543C112.436 31.998 112.475 31.7734 112.475 31.4805C112.475 30.8815 112.26 30.4486 111.83 30.1816C111.407 29.9082 110.798 29.7715 110.004 29.7715C109.086 29.7715 108.435 30.0189 108.051 30.5137C107.836 30.7871 107.696 31.194 107.631 31.7344H105.99C106.023 30.4453 106.439 29.5501 107.24 29.0488C108.048 28.541 108.982 28.2871 110.043 28.2871C111.273 28.2871 112.273 28.5215 113.041 28.9902C113.803 29.459 114.184 30.1882 114.184 31.1777V37.2031C114.184 37.3854 114.219 37.5319 114.291 37.6426C114.369 37.7533 114.529 37.8086 114.77 37.8086C114.848 37.8086 114.936 37.8053 115.033 37.7988C115.131 37.7858 115.235 37.7695 115.346 37.75V39.0488C115.072 39.127 114.864 39.1758 114.721 39.1953C114.577 39.2148 114.382 39.2246 114.135 39.2246C113.529 39.2246 113.09 39.0098 112.816 38.5801C112.673 38.3522 112.572 38.0299 112.514 37.6133C112.156 38.082 111.641 38.4889 110.971 38.834C110.3 39.179 109.561 39.3516 108.754 39.3516C107.784 39.3516 106.99 39.0586 106.371 38.4727C105.759 37.8802 105.453 37.1413 105.453 36.2559C105.453 35.2858 105.756 34.5339 106.361 34C106.967 33.4661 107.761 33.1374 108.744 33.0137L111.547 32.6621ZM117.623 28.541H119.293V30.3477C119.43 29.9961 119.765 29.5697 120.299 29.0684C120.833 28.5605 121.448 28.3066 122.145 28.3066C122.177 28.3066 122.232 28.3099 122.311 28.3164C122.389 28.3229 122.522 28.3359 122.711 28.3555V30.2109C122.607 30.1914 122.509 30.1784 122.418 30.1719C122.333 30.1654 122.239 30.1621 122.135 30.1621C121.249 30.1621 120.569 30.4486 120.094 31.0215C119.618 31.5879 119.381 32.2422 119.381 32.9844V39H117.623V28.541ZM125.848 33.8926C125.848 35.0124 126.085 35.9499 126.561 36.7051C127.036 37.4603 127.798 37.8379 128.846 37.8379C129.66 37.8379 130.327 37.4896 130.848 36.793C131.375 36.0898 131.639 35.084 131.639 33.7754C131.639 32.4538 131.368 31.4772 130.828 30.8457C130.288 30.2077 129.62 29.8887 128.826 29.8887C127.941 29.8887 127.221 30.2272 126.668 30.9043C126.121 31.5814 125.848 32.5775 125.848 33.8926ZM128.494 28.3555C129.295 28.3555 129.965 28.5247 130.506 28.8633C130.818 29.0586 131.173 29.4004 131.57 29.8887V24.6055H133.26V39H131.678V37.5449C131.268 38.1895 130.783 38.6549 130.223 38.9414C129.663 39.2279 129.021 39.3711 128.299 39.3711C127.133 39.3711 126.124 38.8828 125.271 37.9062C124.419 36.9232 123.992 35.6178 123.992 33.9902C123.992 32.4668 124.38 31.1484 125.154 30.0352C125.936 28.9154 127.049 28.3555 128.494 28.3555Z" fill="white"/>
<path d="M282.843 101.082C287.945 95.6462 287.675 87.1027 282.239 82" stroke="#FBFBFB" stroke-width="1.5"/>
<path d="M278.958 99.0441C282.971 94.7693 282.758 88.0509 278.483 84.0382" stroke="#FBFBFB" stroke-width="1.5"/>
<path d="M274.894 97.1784C277.812 94.0691 277.658 89.1825 274.548 86.2639" stroke="#FBFBFB" stroke-width="1.5"/>
<path d="M270.575 95.4524C272.571 93.3265 272.465 89.9854 270.339 87.9899" stroke="#FBFBFB" stroke-width="1.5"/>
</g>
<path d="M257.416 138.974H269.584V160.837H257.416V138.974Z" fill="#FF5F00"/>
<path d="M249.189 171.841V169.523C249.189 168.635 248.648 168.056 247.721 168.056C247.258 168.056 246.756 168.21 246.408 168.712C246.138 168.287 245.751 168.056 245.172 168.056C244.786 168.056 244.4 168.171 244.09 168.596V168.133H243.279V171.841H244.09V169.794C244.09 169.137 244.438 168.828 244.979 168.828C245.52 168.828 245.79 169.176 245.79 169.794V171.841H246.601V169.794C246.601 169.137 246.987 168.828 247.49 168.828C248.03 168.828 248.301 169.176 248.301 169.794V171.841H249.189V171.841ZM261.202 168.133H259.889V167.013H259.078V168.133H258.344V168.867H259.077V170.566C259.077 171.416 259.425 171.918 260.352 171.918C260.7 171.918 261.086 171.802 261.357 171.648L261.125 170.953C260.893 171.107 260.623 171.146 260.429 171.146C260.043 171.146 259.889 170.914 259.889 170.528V168.867H261.202V168.133V168.133ZM268.077 168.055C267.614 168.055 267.305 168.287 267.112 168.596V168.133H266.301V171.841H267.112V169.755C267.112 169.137 267.382 168.79 267.884 168.79C268.039 168.79 268.232 168.828 268.386 168.867L268.618 168.094C268.464 168.056 268.232 168.056 268.077 168.056V168.055ZM257.687 168.442C257.301 168.171 256.76 168.056 256.18 168.056C255.254 168.056 254.636 168.519 254.636 169.253C254.636 169.871 255.099 170.219 255.91 170.335L256.296 170.373C256.721 170.45 256.953 170.566 256.953 170.759C256.953 171.03 256.644 171.223 256.103 171.223C255.562 171.223 255.138 171.03 254.867 170.837L254.481 171.455C254.906 171.764 255.485 171.918 256.064 171.918C257.146 171.918 257.764 171.416 257.764 170.721C257.764 170.064 257.262 169.716 256.489 169.601L256.103 169.562C255.756 169.523 255.485 169.446 255.485 169.214C255.485 168.944 255.756 168.79 256.18 168.79C256.644 168.79 257.108 168.983 257.339 169.098L257.687 168.442V168.442ZM279.241 168.056C278.777 168.056 278.468 168.287 278.275 168.596V168.133H277.464V171.841H278.275V169.755C278.275 169.137 278.545 168.79 279.047 168.79C279.202 168.79 279.395 168.828 279.549 168.867L279.781 168.094C279.627 168.056 279.395 168.056 279.241 168.056V168.056ZM268.889 169.987C268.889 171.107 269.661 171.918 270.859 171.918C271.399 171.918 271.785 171.802 272.172 171.493L271.785 170.837C271.477 171.068 271.168 171.184 270.82 171.184C270.163 171.184 269.7 170.721 269.7 169.987C269.7 169.292 270.163 168.828 270.82 168.79C271.168 168.79 271.477 168.905 271.785 169.137L272.172 168.481C271.785 168.171 271.399 168.056 270.859 168.056C269.661 168.056 268.889 168.867 268.889 169.987ZM276.382 169.987V168.133H275.571V168.596C275.301 168.249 274.914 168.056 274.412 168.056C273.369 168.056 272.558 168.867 272.558 169.987C272.558 171.107 273.369 171.918 274.412 171.918C274.953 171.918 275.339 171.725 275.571 171.377V171.841H276.382V169.987V169.987ZM273.408 169.987C273.408 169.33 273.833 168.79 274.528 168.79C275.185 168.79 275.648 169.292 275.648 169.987C275.648 170.644 275.185 171.184 274.528 171.184C273.833 171.146 273.408 170.644 273.408 169.987V169.987ZM263.713 168.056C262.631 168.056 261.859 168.828 261.859 169.987C261.859 171.146 262.631 171.918 263.751 171.918C264.292 171.918 264.833 171.764 265.258 171.416L264.871 170.837C264.562 171.068 264.176 171.223 263.79 171.223C263.288 171.223 262.786 170.991 262.67 170.334H265.412V170.026C265.451 168.828 264.756 168.056 263.713 168.056H263.713ZM263.713 168.751C264.215 168.751 264.563 169.06 264.64 169.639H262.708C262.786 169.137 263.133 168.751 263.713 168.751ZM283.837 169.987V166.665H283.026V168.596C282.755 168.249 282.369 168.056 281.867 168.056C280.824 168.056 280.013 168.867 280.013 169.987C280.013 171.107 280.824 171.918 281.867 171.918C282.408 171.918 282.794 171.725 283.026 171.377V171.841H283.837V169.987V169.987ZM280.863 169.987C280.863 169.33 281.288 168.79 281.983 168.79C282.64 168.79 283.103 169.292 283.103 169.987C283.103 170.644 282.64 171.184 281.983 171.184C281.288 171.146 280.863 170.644 280.863 169.987V169.987ZM253.747 169.987V168.133H252.936V168.596C252.665 168.249 252.279 168.056 251.777 168.056C250.734 168.056 249.923 168.867 249.923 169.987C249.923 171.107 250.734 171.918 251.777 171.918C252.318 171.918 252.704 171.725 252.936 171.377V171.841H253.747V169.987V169.987ZM250.734 169.987C250.734 169.33 251.159 168.79 251.854 168.79C252.511 168.79 252.975 169.292 252.975 169.987C252.975 170.644 252.511 171.184 251.854 171.184C251.159 171.146 250.734 170.644 250.734 169.987V169.987Z" fill="white"/>
<path d="M258.189 149.906C258.189 145.464 260.275 141.524 263.48 138.974C261.124 137.12 258.15 136 254.906 136C247.219 136 241 142.219 241 149.906C241 157.592 247.219 163.811 254.906 163.811C258.15 163.811 261.124 162.691 263.48 160.837C260.275 158.326 258.189 154.347 258.189 149.906V149.906Z" fill="#EB001B"/>
<path d="M286 149.906C286 157.592 279.781 163.811 272.094 163.811C268.849 163.811 265.875 162.691 263.519 160.837C266.764 158.287 268.811 154.347 268.811 149.906C268.811 145.464 266.725 141.524 263.519 138.974C265.875 137.12 268.849 136 272.094 136C279.781 136 286 142.257 286 149.906H286Z" fill="#F79E1B"/>
<path opacity="0.9" d="M31.7295 121.505C31.8115 122.207 32.1374 122.692 32.707 122.961C32.9987 123.098 33.3359 123.166 33.7188 123.166C34.4479 123.166 34.988 122.934 35.3389 122.469C35.6898 122.004 35.8652 121.489 35.8652 120.924C35.8652 120.24 35.6556 119.712 35.2363 119.338C34.8216 118.964 34.3226 118.777 33.7393 118.777C33.3154 118.777 32.9508 118.859 32.6455 119.023C32.3447 119.188 32.0872 119.415 31.873 119.707L30.8066 119.646L31.5518 114.375H36.6377V115.564H32.4746L32.0576 118.285C32.2855 118.112 32.502 117.982 32.707 117.896C33.0716 117.745 33.4932 117.67 33.9717 117.67C34.8695 117.67 35.6305 117.959 36.2549 118.538C36.8792 119.117 37.1914 119.851 37.1914 120.739C37.1914 121.664 36.9043 122.48 36.3301 123.187C35.7604 123.893 34.849 124.246 33.5957 124.246C32.7982 124.246 32.0918 124.023 31.4766 123.576C30.8659 123.125 30.5241 122.435 30.4512 121.505H31.7295ZM40.0225 121.505C40.1045 122.207 40.4303 122.692 41 122.961C41.2917 123.098 41.6289 123.166 42.0117 123.166C42.7409 123.166 43.2809 122.934 43.6318 122.469C43.9827 122.004 44.1582 121.489 44.1582 120.924C44.1582 120.24 43.9486 119.712 43.5293 119.338C43.1146 118.964 42.6156 118.777 42.0322 118.777C41.6084 118.777 41.2438 118.859 40.9385 119.023C40.6377 119.188 40.3802 119.415 40.166 119.707L39.0996 119.646L39.8447 114.375H44.9307V115.564H40.7676L40.3506 118.285C40.5785 118.112 40.7949 117.982 41 117.896C41.3646 117.745 41.7861 117.67 42.2646 117.67C43.1624 117.67 43.9235 117.959 44.5479 118.538C45.1722 119.117 45.4844 119.851 45.4844 120.739C45.4844 121.664 45.1973 122.48 44.623 123.187C44.0534 123.893 43.1419 124.246 41.8887 124.246C41.0911 124.246 40.3848 124.023 39.7695 123.576C39.1589 123.125 38.8171 122.435 38.7441 121.505H40.0225ZM48.3154 121.505C48.3975 122.207 48.7233 122.692 49.293 122.961C49.5846 123.098 49.9219 123.166 50.3047 123.166C51.0339 123.166 51.5739 122.934 51.9248 122.469C52.2757 122.004 52.4512 121.489 52.4512 120.924C52.4512 120.24 52.2415 119.712 51.8223 119.338C51.4076 118.964 50.9085 118.777 50.3252 118.777C49.9014 118.777 49.5368 118.859 49.2314 119.023C48.9307 119.188 48.6732 119.415 48.459 119.707L47.3926 119.646L48.1377 114.375H53.2236V115.564H49.0605L48.6436 118.285C48.8714 118.112 49.0879 117.982 49.293 117.896C49.6576 117.745 50.0791 117.67 50.5576 117.67C51.4554 117.67 52.2165 117.959 52.8408 118.538C53.4652 119.117 53.7773 119.851 53.7773 120.739C53.7773 121.664 53.4902 122.48 52.916 123.187C52.3464 123.893 51.4349 124.246 50.1816 124.246C49.3841 124.246 48.6777 124.023 48.0625 123.576C47.4518 123.125 47.11 122.435 47.0371 121.505H48.3154ZM56.6084 121.505C56.6904 122.207 57.0163 122.692 57.5859 122.961C57.8776 123.098 58.2148 123.166 58.5977 123.166C59.3268 123.166 59.8669 122.934 60.2178 122.469C60.5687 122.004 60.7441 121.489 60.7441 120.924C60.7441 120.24 60.5345 119.712 60.1152 119.338C59.7005 118.964 59.2015 118.777 58.6182 118.777C58.1943 118.777 57.8298 118.859 57.5244 119.023C57.2236 119.188 56.9661 119.415 56.752 119.707L55.6855 119.646L56.4307 114.375H61.5166V115.564H57.3535L56.9365 118.285C57.1644 118.112 57.3809 117.982 57.5859 117.896C57.9505 117.745 58.3721 117.67 58.8506 117.67C59.7484 117.67 60.5094 117.959 61.1338 118.538C61.7581 119.117 62.0703 119.851 62.0703 120.739C62.0703 121.664 61.7832 122.48 61.209 123.187C60.6393 123.893 59.7279 124.246 58.4746 124.246C57.6771 124.246 56.9707 124.023 56.3555 123.576C55.7448 123.125 55.403 122.435 55.3301 121.505H56.6084ZM69.2979 121.505C69.3799 122.207 69.7057 122.692 70.2754 122.961C70.5671 123.098 70.9043 123.166 71.2871 123.166C72.0163 123.166 72.5563 122.934 72.9072 122.469C73.2581 122.004 73.4336 121.489 73.4336 120.924C73.4336 120.24 73.224 119.712 72.8047 119.338C72.39 118.964 71.891 118.777 71.3076 118.777C70.8838 118.777 70.5192 118.859 70.2139 119.023C69.9131 119.188 69.6556 119.415 69.4414 119.707L68.375 119.646L69.1201 114.375H74.2061V115.564H70.043L69.626 118.285C69.8538 118.112 70.0703 117.982 70.2754 117.896C70.64 117.745 71.0615 117.67 71.54 117.67C72.4378 117.67 73.1989 117.959 73.8232 118.538C74.4476 119.117 74.7598 119.851 74.7598 120.739C74.7598 121.664 74.4727 122.48 73.8984 123.187C73.3288 123.893 72.4173 124.246 71.1641 124.246C70.3665 124.246 69.6602 124.023 69.0449 123.576C68.4342 123.125 68.0924 122.435 68.0195 121.505H69.2979ZM77.5908 121.505C77.6729 122.207 77.9987 122.692 78.5684 122.961C78.86 123.098 79.1973 123.166 79.5801 123.166C80.3092 123.166 80.8493 122.934 81.2002 122.469C81.5511 122.004 81.7266 121.489 81.7266 120.924C81.7266 120.24 81.5169 119.712 81.0977 119.338C80.6829 118.964 80.1839 118.777 79.6006 118.777C79.1768 118.777 78.8122 118.859 78.5068 119.023C78.2061 119.188 77.9486 119.415 77.7344 119.707L76.668 119.646L77.4131 114.375H82.499V115.564H78.3359L77.9189 118.285C78.1468 118.112 78.3633 117.982 78.5684 117.896C78.9329 117.745 79.3545 117.67 79.833 117.67C80.7308 117.67 81.4919 117.959 82.1162 118.538C82.7406 119.117 83.0527 119.851 83.0527 120.739C83.0527 121.664 82.7656 122.48 82.1914 123.187C81.6217 123.893 80.7103 124.246 79.457 124.246C78.6595 124.246 77.9531 124.023 77.3379 123.576C76.7272 123.125 76.3854 122.435 76.3125 121.505H77.5908ZM85.8838 121.505C85.9658 122.207 86.2917 122.692 86.8613 122.961C87.153 123.098 87.4902 123.166 87.873 123.166C88.6022 123.166 89.1423 122.934 89.4932 122.469C89.8441 122.004 90.0195 121.489 90.0195 120.924C90.0195 120.24 89.8099 119.712 89.3906 119.338C88.9759 118.964 88.4769 118.777 87.8936 118.777C87.4697 118.777 87.1051 118.859 86.7998 119.023C86.499 119.188 86.2415 119.415 86.0273 119.707L84.9609 119.646L85.7061 114.375H90.792V115.564H86.6289L86.2119 118.285C86.4398 118.112 86.6562 117.982 86.8613 117.896C87.2259 117.745 87.6475 117.67 88.126 117.67C89.0238 117.67 89.7848 117.959 90.4092 118.538C91.0335 119.117 91.3457 119.851 91.3457 120.739C91.3457 121.664 91.0586 122.48 90.4844 123.187C89.9147 123.893 89.0033 124.246 87.75 124.246C86.9525 124.246 86.2461 124.023 85.6309 123.576C85.0202 123.125 84.6784 122.435 84.6055 121.505H85.8838ZM94.1768 121.505C94.2588 122.207 94.5846 122.692 95.1543 122.961C95.446 123.098 95.7832 123.166 96.166 123.166C96.8952 123.166 97.4352 122.934 97.7861 122.469C98.137 122.004 98.3125 121.489 98.3125 120.924C98.3125 120.24 98.1029 119.712 97.6836 119.338C97.2689 118.964 96.7699 118.777 96.1865 118.777C95.7627 118.777 95.3981 118.859 95.0928 119.023C94.792 119.188 94.5345 119.415 94.3203 119.707L93.2539 119.646L93.999 114.375H99.085V115.564H94.9219L94.5049 118.285C94.7327 118.112 94.9492 117.982 95.1543 117.896C95.5189 117.745 95.9404 117.67 96.4189 117.67C97.3167 117.67 98.0778 117.959 98.7021 118.538C99.3265 119.117 99.6387 119.851 99.6387 120.739C99.6387 121.664 99.3516 122.48 98.7773 123.187C98.2077 123.893 97.2962 124.246 96.043 124.246C95.2454 124.246 94.5391 124.023 93.9238 123.576C93.3132 123.125 92.9714 122.435 92.8984 121.505H94.1768ZM106.866 121.505C106.948 122.207 107.274 122.692 107.844 122.961C108.135 123.098 108.473 123.166 108.855 123.166C109.585 123.166 110.125 122.934 110.476 122.469C110.826 122.004 111.002 121.489 111.002 120.924C111.002 120.24 110.792 119.712 110.373 119.338C109.958 118.964 109.459 118.777 108.876 118.777C108.452 118.777 108.088 118.859 107.782 119.023C107.481 119.188 107.224 119.415 107.01 119.707L105.943 119.646L106.688 114.375H111.774V115.564H107.611L107.194 118.285C107.422 118.112 107.639 117.982 107.844 117.896C108.208 117.745 108.63 117.67 109.108 117.67C110.006 117.67 110.767 117.959 111.392 118.538C112.016 119.117 112.328 119.851 112.328 120.739C112.328 121.664 112.041 122.48 111.467 123.187C110.897 123.893 109.986 124.246 108.732 124.246C107.935 124.246 107.229 124.023 106.613 123.576C106.003 123.125 105.661 122.435 105.588 121.505H106.866ZM115.159 121.505C115.241 122.207 115.567 122.692 116.137 122.961C116.428 123.098 116.766 123.166 117.148 123.166C117.878 123.166 118.418 122.934 118.769 122.469C119.119 122.004 119.295 121.489 119.295 120.924C119.295 120.24 119.085 119.712 118.666 119.338C118.251 118.964 117.752 118.777 117.169 118.777C116.745 118.777 116.381 118.859 116.075 119.023C115.774 119.188 115.517 119.415 115.303 119.707L114.236 119.646L114.981 114.375H120.067V115.564H115.904L115.487 118.285C115.715 118.112 115.932 117.982 116.137 117.896C116.501 117.745 116.923 117.67 117.401 117.67C118.299 117.67 119.06 117.959 119.685 118.538C120.309 119.117 120.621 119.851 120.621 120.739C120.621 121.664 120.334 122.48 119.76 123.187C119.19 123.893 118.279 124.246 117.025 124.246C116.228 124.246 115.521 124.023 114.906 123.576C114.296 123.125 113.954 122.435 113.881 121.505H115.159ZM123.452 121.505C123.534 122.207 123.86 122.692 124.43 122.961C124.721 123.098 125.059 123.166 125.441 123.166C126.171 123.166 126.711 122.934 127.062 122.469C127.412 122.004 127.588 121.489 127.588 120.924C127.588 120.24 127.378 119.712 126.959 119.338C126.544 118.964 126.045 118.777 125.462 118.777C125.038 118.777 124.674 118.859 124.368 119.023C124.067 119.188 123.81 119.415 123.596 119.707L122.529 119.646L123.274 114.375H128.36V115.564H124.197L123.78 118.285C124.008 118.112 124.225 117.982 124.43 117.896C124.794 117.745 125.216 117.67 125.694 117.67C126.592 117.67 127.353 117.959 127.978 118.538C128.602 119.117 128.914 119.851 128.914 120.739C128.914 121.664 128.627 122.48 128.053 123.187C127.483 123.893 126.572 124.246 125.318 124.246C124.521 124.246 123.814 124.023 123.199 123.576C122.589 123.125 122.247 122.435 122.174 121.505H123.452ZM131.745 121.505C131.827 122.207 132.153 122.692 132.723 122.961C133.014 123.098 133.352 123.166 133.734 123.166C134.464 123.166 135.004 122.934 135.354 122.469C135.705 122.004 135.881 121.489 135.881 120.924C135.881 120.24 135.671 119.712 135.252 119.338C134.837 118.964 134.338 118.777 133.755 118.777C133.331 118.777 132.966 118.859 132.661 119.023C132.36 119.188 132.103 119.415 131.889 119.707L130.822 119.646L131.567 114.375H136.653V115.564H132.49L132.073 118.285C132.301 118.112 132.518 117.982 132.723 117.896C133.087 117.745 133.509 117.67 133.987 117.67C134.885 117.67 135.646 117.959 136.271 118.538C136.895 119.117 137.207 119.851 137.207 120.739C137.207 121.664 136.92 122.48 136.346 123.187C135.776 123.893 134.865 124.246 133.611 124.246C132.814 124.246 132.107 124.023 131.492 123.576C130.882 123.125 130.54 122.435 130.467 121.505H131.745ZM143.143 124C143.188 123.157 143.361 122.423 143.662 121.799C143.967 121.174 144.56 120.607 145.439 120.097L146.752 119.338C147.34 118.996 147.752 118.704 147.989 118.463C148.363 118.085 148.55 117.652 148.55 117.164C148.55 116.594 148.379 116.143 148.037 115.811C147.695 115.473 147.24 115.305 146.67 115.305C145.827 115.305 145.243 115.624 144.92 116.262C144.747 116.604 144.651 117.077 144.633 117.684H143.382C143.396 116.831 143.553 116.136 143.854 115.599C144.387 114.651 145.328 114.177 146.677 114.177C147.798 114.177 148.616 114.48 149.131 115.086C149.65 115.692 149.91 116.367 149.91 117.109C149.91 117.893 149.634 118.563 149.083 119.119C148.764 119.443 148.192 119.835 147.367 120.295L146.431 120.814C145.984 121.061 145.633 121.295 145.378 121.519C144.922 121.915 144.635 122.355 144.517 122.838H149.862V124H143.143ZM151.436 124C151.481 123.157 151.654 122.423 151.955 121.799C152.26 121.174 152.853 120.607 153.732 120.097L155.045 119.338C155.633 118.996 156.045 118.704 156.282 118.463C156.656 118.085 156.843 117.652 156.843 117.164C156.843 116.594 156.672 116.143 156.33 115.811C155.988 115.473 155.533 115.305 154.963 115.305C154.12 115.305 153.536 115.624 153.213 116.262C153.04 116.604 152.944 117.077 152.926 117.684H151.675C151.688 116.831 151.846 116.136 152.146 115.599C152.68 114.651 153.621 114.177 154.97 114.177C156.091 114.177 156.909 114.48 157.424 115.086C157.943 115.692 158.203 116.367 158.203 117.109C158.203 117.893 157.927 118.563 157.376 119.119C157.057 119.443 156.485 119.835 155.66 120.295L154.724 120.814C154.277 121.061 153.926 121.295 153.671 121.519C153.215 121.915 152.928 122.355 152.81 122.838H158.155V124H151.436ZM159.729 124C159.774 123.157 159.947 122.423 160.248 121.799C160.553 121.174 161.146 120.607 162.025 120.097L163.338 119.338C163.926 118.996 164.338 118.704 164.575 118.463C164.949 118.085 165.136 117.652 165.136 117.164C165.136 116.594 164.965 116.143 164.623 115.811C164.281 115.473 163.826 115.305 163.256 115.305C162.413 115.305 161.829 115.624 161.506 116.262C161.333 116.604 161.237 117.077 161.219 117.684H159.968C159.981 116.831 160.139 116.136 160.439 115.599C160.973 114.651 161.914 114.177 163.263 114.177C164.384 114.177 165.202 114.48 165.717 115.086C166.236 115.692 166.496 116.367 166.496 117.109C166.496 117.893 166.22 118.563 165.669 119.119C165.35 119.443 164.778 119.835 163.953 120.295L163.017 120.814C162.57 121.061 162.219 121.295 161.964 121.519C161.508 121.915 161.221 122.355 161.103 122.838H166.448V124H159.729ZM168.021 124C168.067 123.157 168.24 122.423 168.541 121.799C168.846 121.174 169.439 120.607 170.318 120.097L171.631 119.338C172.219 118.996 172.631 118.704 172.868 118.463C173.242 118.085 173.429 117.652 173.429 117.164C173.429 116.594 173.258 116.143 172.916 115.811C172.574 115.473 172.118 115.305 171.549 115.305C170.706 115.305 170.122 115.624 169.799 116.262C169.626 116.604 169.53 117.077 169.512 117.684H168.261C168.274 116.831 168.432 116.136 168.732 115.599C169.266 114.651 170.207 114.177 171.556 114.177C172.677 114.177 173.495 114.48 174.01 115.086C174.529 115.692 174.789 116.367 174.789 117.109C174.789 117.893 174.513 118.563 173.962 119.119C173.643 119.443 173.071 119.835 172.246 120.295L171.31 120.814C170.863 121.061 170.512 121.295 170.257 121.519C169.801 121.915 169.514 122.355 169.396 122.838H174.741V124H168.021Z" fill="white"/>
<path opacity="0.9" d="M35.332 166.473L34.0254 162.67L32.6367 166.473H35.332ZM33.416 161.393H34.7344L37.8574 170H36.5801L35.707 167.422H32.3027L31.3711 170H30.1758L33.416 161.393ZM39.3066 161.393H40.3613V170H39.3066V161.393ZM42.4492 163.754H43.5215V170H42.4492V163.754ZM42.4492 161.393H43.5215V162.588H42.4492V161.393ZM48.041 163.543C48.748 163.543 49.3223 163.715 49.7637 164.059C50.209 164.402 50.4766 164.994 50.5664 165.834H49.541C49.4785 165.447 49.3359 165.127 49.1133 164.873C48.8906 164.615 48.5332 164.486 48.041 164.486C47.3691 164.486 46.8887 164.814 46.5996 165.471C46.4121 165.896 46.3184 166.422 46.3184 167.047C46.3184 167.676 46.4512 168.205 46.7168 168.635C46.9824 169.064 47.4004 169.279 47.9707 169.279C48.4082 169.279 48.7539 169.146 49.0078 168.881C49.2656 168.611 49.4434 168.244 49.541 167.779H50.5664C50.4492 168.611 50.1562 169.221 49.6875 169.607C49.2188 169.99 48.6191 170.182 47.8887 170.182C47.0684 170.182 46.4141 169.883 45.9258 169.285C45.4375 168.684 45.1934 167.934 45.1934 167.035C45.1934 165.934 45.4609 165.076 45.9961 164.463C46.5312 163.85 47.2129 163.543 48.041 163.543ZM54.7344 163.584C55.1797 163.584 55.6113 163.689 56.0293 163.9C56.4473 164.107 56.7656 164.377 56.9844 164.709C57.1953 165.025 57.3359 165.395 57.4062 165.816C57.4688 166.105 57.5 166.566 57.5 167.199H52.9004C52.9199 167.836 53.0703 168.348 53.3516 168.734C53.6328 169.117 54.0684 169.309 54.6582 169.309C55.209 169.309 55.6484 169.127 55.9766 168.764C56.1641 168.553 56.2969 168.309 56.375 168.031H57.4121C57.3848 168.262 57.293 168.52 57.1367 168.805C56.9844 169.086 56.8125 169.316 56.6211 169.496C56.3008 169.809 55.9043 170.02 55.4316 170.129C55.1777 170.191 54.8906 170.223 54.5703 170.223C53.7891 170.223 53.127 169.939 52.584 169.373C52.041 168.803 51.7695 168.006 51.7695 166.982C51.7695 165.975 52.043 165.156 52.5898 164.527C53.1367 163.898 53.8516 163.584 54.7344 163.584ZM56.416 166.361C56.373 165.904 56.2734 165.539 56.1172 165.266C55.8281 164.758 55.3457 164.504 54.6699 164.504C54.1855 164.504 53.7793 164.68 53.4512 165.031C53.123 165.379 52.9492 165.822 52.9297 166.361H56.416ZM64.043 167.223C64.0703 167.711 64.1855 168.107 64.3887 168.412C64.7754 168.982 65.457 169.268 66.4336 169.268C66.8711 169.268 67.2695 169.205 67.6289 169.08C68.3242 168.838 68.6719 168.404 68.6719 167.779C68.6719 167.311 68.5254 166.977 68.2324 166.777C67.9355 166.582 67.4707 166.412 66.8379 166.268L65.6719 166.004C64.9102 165.832 64.3711 165.643 64.0547 165.436C63.5078 165.076 63.2344 164.539 63.2344 163.824C63.2344 163.051 63.502 162.416 64.0371 161.92C64.5723 161.424 65.3301 161.176 66.3105 161.176C67.2129 161.176 67.9785 161.395 68.6074 161.832C69.2402 162.266 69.5566 162.961 69.5566 163.918H68.4609C68.4023 163.457 68.2773 163.104 68.0859 162.857C67.7305 162.408 67.127 162.184 66.2754 162.184C65.5879 162.184 65.0938 162.328 64.793 162.617C64.4922 162.906 64.3418 163.242 64.3418 163.625C64.3418 164.047 64.5176 164.355 64.8691 164.551C65.0996 164.676 65.6211 164.832 66.4336 165.02L67.6406 165.295C68.2227 165.428 68.6719 165.609 68.9883 165.84C69.5352 166.242 69.8086 166.826 69.8086 167.592C69.8086 168.545 69.4609 169.227 68.7656 169.637C68.0742 170.047 67.2695 170.252 66.3516 170.252C65.2812 170.252 64.4434 169.979 63.8379 169.432C63.2324 168.889 62.9355 168.152 62.9473 167.223H64.043ZM71.8555 161.973H72.9219V163.725H73.9238V164.586H72.9219V168.682C72.9219 168.9 72.9961 169.047 73.1445 169.121C73.2266 169.164 73.3633 169.186 73.5547 169.186C73.6055 169.186 73.6602 169.186 73.7188 169.186C73.7773 169.182 73.8457 169.176 73.9238 169.168V170C73.8027 170.035 73.6758 170.061 73.543 170.076C73.4141 170.092 73.2734 170.1 73.1211 170.1C72.6289 170.1 72.2949 169.975 72.1191 169.725C71.9434 169.471 71.8555 169.143 71.8555 168.74V164.586H71.0059V163.725H71.8555V161.973ZM75.5137 163.725H76.5156V164.809C76.5977 164.598 76.7988 164.342 77.1191 164.041C77.4395 163.736 77.8086 163.584 78.2266 163.584C78.2461 163.584 78.2793 163.586 78.3262 163.59C78.373 163.594 78.4531 163.602 78.5664 163.613V164.727C78.5039 164.715 78.4453 164.707 78.3906 164.703C78.3398 164.699 78.2832 164.697 78.2207 164.697C77.6895 164.697 77.2812 164.869 76.9961 165.213C76.7109 165.553 76.5684 165.945 76.5684 166.391V170H75.5137V163.725ZM80.7891 168.33C80.7891 168.635 80.9004 168.875 81.123 169.051C81.3457 169.227 81.6094 169.314 81.9141 169.314C82.2852 169.314 82.6445 169.229 82.9922 169.057C83.5781 168.771 83.8711 168.305 83.8711 167.656V166.807C83.7422 166.889 83.5762 166.957 83.373 167.012C83.1699 167.066 82.9707 167.105 82.7754 167.129L82.1367 167.211C81.7539 167.262 81.4668 167.342 81.2754 167.451C80.9512 167.635 80.7891 167.928 80.7891 168.33ZM83.3438 166.197C83.5859 166.166 83.748 166.064 83.8301 165.893C83.877 165.799 83.9004 165.664 83.9004 165.488C83.9004 165.129 83.7715 164.869 83.5137 164.709C83.2598 164.545 82.8945 164.463 82.418 164.463C81.8672 164.463 81.4766 164.611 81.2461 164.908C81.1172 165.072 81.0332 165.316 80.9941 165.641H80.0098C80.0293 164.867 80.2793 164.33 80.7598 164.029C81.2441 163.725 81.8047 163.572 82.4414 163.572C83.1797 163.572 83.7793 163.713 84.2402 163.994C84.6973 164.275 84.9258 164.713 84.9258 165.307V168.922C84.9258 169.031 84.9473 169.119 84.9902 169.186C85.0371 169.252 85.1328 169.285 85.2773 169.285C85.3242 169.285 85.377 169.283 85.4355 169.279C85.4941 169.271 85.5566 169.262 85.623 169.25V170.029C85.459 170.076 85.334 170.105 85.248 170.117C85.1621 170.129 85.0449 170.135 84.8965 170.135C84.5332 170.135 84.2695 170.006 84.1055 169.748C84.0195 169.611 83.959 169.418 83.9238 169.168C83.709 169.449 83.4004 169.693 82.998 169.9C82.5957 170.107 82.1523 170.211 81.668 170.211C81.0859 170.211 80.6094 170.035 80.2383 169.684C79.8711 169.328 79.6875 168.885 79.6875 168.354C79.6875 167.771 79.8691 167.32 80.2324 167C80.5957 166.68 81.0723 166.482 81.6621 166.408L83.3438 166.197ZM87.1602 163.725H88.1621V164.615C88.459 164.248 88.7734 163.984 89.1055 163.824C89.4375 163.664 89.8066 163.584 90.2129 163.584C91.1035 163.584 91.7051 163.895 92.0176 164.516C92.1895 164.855 92.2754 165.342 92.2754 165.975V170H91.2031V166.045C91.2031 165.662 91.1465 165.354 91.0332 165.119C90.8457 164.729 90.5059 164.533 90.0137 164.533C89.7637 164.533 89.5586 164.559 89.3984 164.609C89.1094 164.695 88.8555 164.867 88.6367 165.125C88.4609 165.332 88.3457 165.547 88.291 165.77C88.2402 165.988 88.2148 166.303 88.2148 166.713V170H87.1602V163.725ZM96.5547 163.613C97.0469 163.613 97.4766 163.734 97.8438 163.977C98.043 164.113 98.2461 164.312 98.4531 164.574V163.783H99.4258V169.49C99.4258 170.287 99.3086 170.916 99.0742 171.377C98.6367 172.229 97.8105 172.654 96.5957 172.654C95.9199 172.654 95.3516 172.502 94.8906 172.197C94.4297 171.896 94.1719 171.424 94.1172 170.779H95.1895C95.2402 171.061 95.3418 171.277 95.4941 171.43C95.7324 171.664 96.1074 171.781 96.6191 171.781C97.4277 171.781 97.957 171.496 98.207 170.926C98.3555 170.59 98.4238 169.99 98.4121 169.127C98.2012 169.447 97.9473 169.686 97.6504 169.842C97.3535 169.998 96.9609 170.076 96.4727 170.076C95.793 170.076 95.1973 169.836 94.6855 169.355C94.1777 168.871 93.9238 168.072 93.9238 166.959C93.9238 165.908 94.1797 165.088 94.6914 164.498C95.207 163.908 95.8281 163.613 96.5547 163.613ZM98.4531 166.836C98.4531 166.059 98.293 165.482 97.9727 165.107C97.6523 164.732 97.2441 164.545 96.748 164.545C96.0059 164.545 95.498 164.893 95.2246 165.588C95.0801 165.959 95.0078 166.445 95.0078 167.047C95.0078 167.754 95.1504 168.293 95.4355 168.664C95.7246 169.031 96.1113 169.215 96.5957 169.215C97.3535 169.215 97.8867 168.873 98.1953 168.189C98.3672 167.803 98.4531 167.352 98.4531 166.836ZM104.133 163.584C104.578 163.584 105.01 163.689 105.428 163.9C105.846 164.107 106.164 164.377 106.383 164.709C106.594 165.025 106.734 165.395 106.805 165.816C106.867 166.105 106.898 166.566 106.898 167.199H102.299C102.318 167.836 102.469 168.348 102.75 168.734C103.031 169.117 103.467 169.309 104.057 169.309C104.607 169.309 105.047 169.127 105.375 168.764C105.562 168.553 105.695 168.309 105.773 168.031H106.811C106.783 168.262 106.691 168.52 106.535 168.805C106.383 169.086 106.211 169.316 106.02 169.496C105.699 169.809 105.303 170.02 104.83 170.129C104.576 170.191 104.289 170.223 103.969 170.223C103.188 170.223 102.525 169.939 101.982 169.373C101.439 168.803 101.168 168.006 101.168 166.982C101.168 165.975 101.441 165.156 101.988 164.527C102.535 163.898 103.25 163.584 104.133 163.584ZM105.814 166.361C105.771 165.904 105.672 165.539 105.516 165.266C105.227 164.758 104.744 164.504 104.068 164.504C103.584 164.504 103.178 164.68 102.85 165.031C102.521 165.379 102.348 165.822 102.328 166.361H105.814Z" fill="white"/>
<path opacity="0.9" d="M30.7969 131.696L32.0332 135.361L33.2549 131.696H33.9082L32.3379 136H31.7197L30.1523 131.696H30.7969ZM34.8477 135.165C34.8477 135.317 34.9033 135.438 35.0146 135.525C35.126 135.613 35.2578 135.657 35.4102 135.657C35.5957 135.657 35.7754 135.614 35.9492 135.528C36.2422 135.386 36.3887 135.152 36.3887 134.828V134.403C36.3242 134.444 36.2412 134.479 36.1396 134.506C36.0381 134.533 35.9385 134.553 35.8408 134.564L35.5215 134.605C35.3301 134.631 35.1865 134.671 35.0908 134.726C34.9287 134.817 34.8477 134.964 34.8477 135.165ZM36.125 134.099C36.2461 134.083 36.3271 134.032 36.3682 133.946C36.3916 133.899 36.4033 133.832 36.4033 133.744C36.4033 133.564 36.3389 133.435 36.21 133.354C36.083 133.272 35.9004 133.231 35.6621 133.231C35.3867 133.231 35.1914 133.306 35.0762 133.454C35.0117 133.536 34.9697 133.658 34.9502 133.82H34.458C34.4678 133.434 34.5928 133.165 34.833 133.015C35.0752 132.862 35.3555 132.786 35.6738 132.786C36.043 132.786 36.3428 132.856 36.5732 132.997C36.8018 133.138 36.916 133.356 36.916 133.653V135.461C36.916 135.516 36.9268 135.56 36.9482 135.593C36.9717 135.626 37.0195 135.643 37.0918 135.643C37.1152 135.643 37.1416 135.642 37.1709 135.64C37.2002 135.636 37.2314 135.631 37.2646 135.625V136.015C37.1826 136.038 37.1201 136.053 37.0771 136.059C37.0342 136.064 36.9756 136.067 36.9014 136.067C36.7197 136.067 36.5879 136.003 36.5059 135.874C36.4629 135.806 36.4326 135.709 36.415 135.584C36.3076 135.725 36.1533 135.847 35.9521 135.95C35.751 136.054 35.5293 136.105 35.2871 136.105C34.9961 136.105 34.7578 136.018 34.5723 135.842C34.3887 135.664 34.2969 135.442 34.2969 135.177C34.2969 134.886 34.3877 134.66 34.5693 134.5C34.751 134.34 34.9893 134.241 35.2842 134.204L36.125 134.099ZM38.2979 131.696H38.8252V136H38.2979V131.696ZM40.1191 132.877H40.6553V136H40.1191V132.877ZM40.1191 131.696H40.6553V132.294H40.1191V131.696ZM42.2891 134.468C42.2891 134.804 42.3604 135.085 42.5029 135.312C42.6455 135.538 42.874 135.651 43.1885 135.651C43.4326 135.651 43.6328 135.547 43.7891 135.338C43.9473 135.127 44.0264 134.825 44.0264 134.433C44.0264 134.036 43.9453 133.743 43.7832 133.554C43.6211 133.362 43.4209 133.267 43.1826 133.267C42.917 133.267 42.7012 133.368 42.5352 133.571C42.3711 133.774 42.2891 134.073 42.2891 134.468ZM43.083 132.807C43.3232 132.807 43.5244 132.857 43.6865 132.959C43.7803 133.018 43.8867 133.12 44.0059 133.267V131.682H44.5127V136H44.0381V135.563C43.915 135.757 43.7695 135.896 43.6016 135.982C43.4336 136.068 43.2412 136.111 43.0244 136.111C42.6748 136.111 42.3721 135.965 42.1162 135.672C41.8604 135.377 41.7324 134.985 41.7324 134.497C41.7324 134.04 41.8486 133.645 42.0811 133.311C42.3154 132.975 42.6494 132.807 43.083 132.807ZM48.0703 131.986H48.6035V132.862H49.1045V133.293H48.6035V135.341C48.6035 135.45 48.6406 135.523 48.7148 135.561C48.7559 135.582 48.8242 135.593 48.9199 135.593C48.9453 135.593 48.9727 135.593 49.002 135.593C49.0312 135.591 49.0654 135.588 49.1045 135.584V136C49.0439 136.018 48.9805 136.03 48.9141 136.038C48.8496 136.046 48.7793 136.05 48.7031 136.05C48.457 136.05 48.29 135.987 48.2021 135.862C48.1143 135.735 48.0703 135.571 48.0703 135.37V133.293H47.6455V132.862H48.0703V131.986ZM50.1348 131.682H50.6621V133.287C50.7871 133.129 50.8994 133.018 50.999 132.953C51.1689 132.842 51.3809 132.786 51.6348 132.786C52.0898 132.786 52.3984 132.945 52.5605 133.264C52.6484 133.438 52.6924 133.679 52.6924 133.987V136H52.1504V134.022C52.1504 133.792 52.1211 133.623 52.0625 133.516C51.9668 133.344 51.7871 133.258 51.5234 133.258C51.3047 133.258 51.1064 133.333 50.9287 133.483C50.751 133.634 50.6621 133.918 50.6621 134.336V136H50.1348V131.682ZM53.9893 132.862H54.4902V133.404C54.5312 133.299 54.6318 133.171 54.792 133.021C54.9521 132.868 55.1367 132.792 55.3457 132.792C55.3555 132.792 55.3721 132.793 55.3955 132.795C55.4189 132.797 55.459 132.801 55.5156 132.807V133.363C55.4844 133.357 55.4551 133.354 55.4277 133.352C55.4023 133.35 55.374 133.349 55.3428 133.349C55.0771 133.349 54.873 133.435 54.7305 133.606C54.5879 133.776 54.5166 133.973 54.5166 134.195V136H53.9893V132.862ZM57 132.862V134.945C57 135.105 57.0254 135.236 57.0762 135.338C57.1699 135.525 57.3447 135.619 57.6006 135.619C57.9678 135.619 58.2178 135.455 58.3506 135.127C58.4229 134.951 58.459 134.71 58.459 134.403V132.862H58.9863V136H58.4883L58.4941 135.537C58.4258 135.656 58.3408 135.757 58.2393 135.839C58.0381 136.003 57.7939 136.085 57.5068 136.085C57.0596 136.085 56.7549 135.936 56.5928 135.637C56.5049 135.477 56.4609 135.263 56.4609 134.995V132.862H57Z" fill="white"/>
<path opacity="0.9" d="M32.9756 140.309C33.971 140.309 34.6908 140.719 35.1348 141.539C35.4785 142.172 35.6504 143.041 35.6504 144.144C35.6504 145.189 35.4946 146.054 35.1831 146.738C34.7319 147.719 33.9943 148.209 32.9702 148.209C32.0464 148.209 31.3589 147.808 30.9077 147.006C30.5317 146.337 30.3438 145.438 30.3438 144.31C30.3438 143.436 30.4565 142.686 30.6821 142.06C31.1047 140.892 31.8691 140.309 32.9756 140.309ZM32.9648 147.329C33.4661 147.329 33.8654 147.107 34.1626 146.663C34.4598 146.219 34.6084 145.391 34.6084 144.181C34.6084 143.307 34.501 142.59 34.2861 142.027C34.0713 141.462 33.6541 141.179 33.0347 141.179C32.4653 141.179 32.0482 141.447 31.7832 141.984C31.5218 142.518 31.3911 143.306 31.3911 144.348C31.3911 145.132 31.4753 145.762 31.6436 146.238C31.9014 146.965 32.3418 147.329 32.9648 147.329ZM37.9819 146.04C38.0464 146.591 38.3024 146.972 38.75 147.184C38.9792 147.291 39.2441 147.345 39.5449 147.345C40.1178 147.345 40.5422 147.162 40.8179 146.797C41.0936 146.432 41.2314 146.027 41.2314 145.583C41.2314 145.046 41.0667 144.631 40.7373 144.337C40.4115 144.043 40.0194 143.896 39.561 143.896C39.228 143.896 38.9416 143.961 38.7017 144.09C38.4653 144.219 38.263 144.398 38.0947 144.627L37.2568 144.579L37.8423 140.438H41.8384V141.372H38.5674L38.2397 143.51C38.4188 143.374 38.5889 143.272 38.75 143.204C39.0365 143.085 39.3677 143.026 39.7437 143.026C40.4491 143.026 41.047 143.254 41.5376 143.708C42.0282 144.163 42.2734 144.74 42.2734 145.438C42.2734 146.165 42.0479 146.806 41.5967 147.361C41.1491 147.916 40.4329 148.193 39.4482 148.193C38.8216 148.193 38.2666 148.018 37.7832 147.667C37.3034 147.312 37.0348 146.77 36.9775 146.04H37.9819ZM45.749 140.11H46.5654L44.0625 148H43.2461L45.749 140.11ZM47.1514 148C47.1872 147.338 47.3232 146.761 47.5596 146.271C47.7995 145.78 48.265 145.334 48.9561 144.933L49.9873 144.337C50.4492 144.068 50.7733 143.839 50.9595 143.649C51.2531 143.352 51.3999 143.012 51.3999 142.629C51.3999 142.181 51.2656 141.827 50.9971 141.565C50.7285 141.3 50.3704 141.168 49.9229 141.168C49.2604 141.168 48.8021 141.419 48.5479 141.92C48.4118 142.188 48.3366 142.561 48.3223 143.037H47.3394C47.3501 142.368 47.4736 141.821 47.71 141.399C48.1289 140.654 48.8683 140.282 49.9282 140.282C50.8091 140.282 51.4518 140.52 51.8564 140.996C52.2646 141.472 52.4688 142.002 52.4688 142.586C52.4688 143.202 52.2521 143.728 51.8188 144.165C51.5682 144.419 51.1188 144.727 50.4707 145.089L49.7349 145.497C49.384 145.69 49.1082 145.875 48.9077 146.05C48.5496 146.362 48.3241 146.707 48.231 147.087H52.4312V148H47.1514ZM54.7896 146.04C54.854 146.591 55.11 146.972 55.5576 147.184C55.7868 147.291 56.0518 147.345 56.3525 147.345C56.9255 147.345 57.3498 147.162 57.6255 146.797C57.9012 146.432 58.0391 146.027 58.0391 145.583C58.0391 145.046 57.8743 144.631 57.5449 144.337C57.2191 144.043 56.827 143.896 56.3687 143.896C56.0356 143.896 55.7492 143.961 55.5093 144.09C55.2729 144.219 55.0706 144.398 54.9023 144.627L54.0645 144.579L54.6499 140.438H58.646V141.372H55.375L55.0474 143.51C55.2264 143.374 55.3965 143.272 55.5576 143.204C55.8441 143.085 56.1753 143.026 56.5513 143.026C57.2567 143.026 57.8547 143.254 58.3452 143.708C58.8358 144.163 59.0811 144.74 59.0811 145.438C59.0811 146.165 58.8555 146.806 58.4043 147.361C57.9567 147.916 57.2406 148.193 56.2559 148.193C55.6292 148.193 55.0742 148.018 54.5908 147.667C54.111 147.312 53.8424 146.77 53.7852 146.04H54.7896Z" fill="white"/>
<rect x="30" y="76" width="33" height="22" rx="5" fill="url(#paint1_radial_24_55)"/>
<path fill-rule="evenodd" clip-rule="evenodd" d="M46.5 76.2189L42.8334 81.9682C42.8334 81.9682 44.3 86.9989 42.8334 91.3109L46.5 97.7789L50.1667 91.3109C50.1667 91.3109 48.7 87.7176 50.1667 81.9682C50.1667 81.9682 46.5 76.2189 46.5 76.2189Z" stroke="#C7C7B6" stroke-width="1.3" stroke-linejoin="bevel"/>
<path d="M30 82.2324H42.8333" stroke="#C7C7B6" stroke-width="1.3" stroke-linejoin="bevel"/>
<path d="M49.7997 82.2324H62.9997" stroke="#C7C7B6" stroke-width="1.3" stroke-linejoin="bevel"/>
<path d="M30 91.032H42.8333" stroke="#C7C7B6" stroke-width="1.3" stroke-linejoin="bevel"/>
<path d="M49.7997 91.032H62.9997" stroke="#C7C7B6" stroke-width="1.3" stroke-linejoin="bevel"/>
<defs>
<linearGradient id="paint0_linear_24_55" x1="55.3965" y1="-29.0526" x2="88.5115" y2="228.882" gradientUnits="userSpaceOnUse">
<stop stop-color="#979797"/>
<stop offset="1"/>
</linearGradient>
<radialGradient id="paint1_radial_24_55" cx="0" cy="0" r="1" gradientUnits="userSpaceOnUse" gradientTransform="translate(48.9503 84.0139) rotate(141.302) scale(22.37 22.2003)">
<stop stop-color="white"/>
<stop offset="1" stop-color="#DDDCDA"/>
</radialGradient>
</defs>
</svg>
