<svg width="315" height="184" viewBox="0 0 315 184" fill="none" xmlns="http://www.w3.org/2000/svg">
<rect width="315" height="184" rx="30" fill="url(#paint0_linear_12_0)"/>
<mask id="mask0_12_0" style="mask-type:alpha" maskUnits="userSpaceOnUse" x="0" y="0" width="315" height="184">
<rect width="315" height="184" rx="30" fill="#ED713C"/>
</mask>
<g mask="url(#mask0_12_0)">
<ellipse opacity="0.1" cx="24.5" cy="213" rx="160.5" ry="113" fill="black"/>
<ellipse opacity="0.08" cx="290.5" cy="-29" rx="160.5" ry="113" fill="black"/>
</g>
<path opacity="0.9" d="M28.4746 19.6543H31.2578L35.3789 31.7832L39.4707 19.6543H42.2246V34H40.3789V25.5332C40.3789 25.2402 40.3854 24.7552 40.3984 24.0781C40.4115 23.401 40.418 22.6751 40.418 21.9004L36.3262 34H34.4023L30.2812 21.9004V22.3398C30.2812 22.6914 30.2878 23.2285 30.3008 23.9512C30.3203 24.6673 30.3301 25.1947 30.3301 25.5332V34H28.4746V19.6543ZM46.7969 31.2168C46.7969 31.7246 46.9824 32.125 47.3535 32.418C47.7246 32.7109 48.1641 32.8574 48.6719 32.8574C49.2904 32.8574 49.8893 32.7142 50.4688 32.4277C51.4453 31.9525 51.9336 31.1745 51.9336 30.0938V28.6777C51.7188 28.8145 51.4421 28.9284 51.1035 29.0195C50.765 29.1107 50.4329 29.1758 50.1074 29.2148L49.043 29.3516C48.4049 29.4362 47.9264 29.5697 47.6074 29.752C47.0671 30.0579 46.7969 30.5462 46.7969 31.2168ZM51.0547 27.6621C51.4583 27.61 51.7285 27.4408 51.8652 27.1543C51.9434 26.998 51.9824 26.7734 51.9824 26.4805C51.9824 25.8815 51.7676 25.4486 51.3379 25.1816C50.9147 24.9082 50.306 24.7715 49.5117 24.7715C48.5938 24.7715 47.9427 25.0189 47.5586 25.5137C47.3438 25.7871 47.2038 26.194 47.1387 26.7344H45.498C45.5306 25.4453 45.9473 24.5501 46.748 24.0488C47.5553 23.541 48.4896 23.2871 49.5508 23.2871C50.7812 23.2871 51.7806 23.5215 52.5488 23.9902C53.3105 24.459 53.6914 25.1882 53.6914 26.1777V32.2031C53.6914 32.3854 53.7272 32.5319 53.7988 32.6426C53.877 32.7533 54.0365 32.8086 54.2773 32.8086C54.3555 32.8086 54.4434 32.8053 54.541 32.7988C54.6387 32.7858 54.7428 32.7695 54.8535 32.75V34.0488C54.5801 34.127 54.3717 34.1758 54.2285 34.1953C54.0853 34.2148 53.89 34.2246 53.6426 34.2246C53.0371 34.2246 52.5977 34.0098 52.3242 33.5801C52.181 33.3522 52.0801 33.0299 52.0215 32.6133C51.6634 33.082 51.1491 33.4889 50.4785 33.834C49.8079 34.179 49.069 34.3516 48.2617 34.3516C47.2917 34.3516 46.4974 34.0586 45.8789 33.4727C45.2669 32.8802 44.9609 32.1413 44.9609 31.2559C44.9609 30.2858 45.2637 29.5339 45.8691 29C46.4746 28.4661 47.2689 28.1374 48.252 28.0137L51.0547 27.6621ZM58.127 30.7188C58.179 31.3047 58.3255 31.7539 58.5664 32.0664C59.0091 32.6328 59.7773 32.916 60.8711 32.916C61.5221 32.916 62.0951 32.776 62.5898 32.4961C63.0846 32.2096 63.332 31.7702 63.332 31.1777C63.332 30.7285 63.1335 30.3867 62.7363 30.1523C62.4824 30.0091 61.9811 29.8431 61.2324 29.6543L59.8359 29.3027C58.944 29.0814 58.2865 28.834 57.8633 28.5605C57.1081 28.0853 56.7305 27.4277 56.7305 26.5879C56.7305 25.5983 57.0853 24.7975 57.7949 24.1855C58.5111 23.5736 59.4714 23.2676 60.6758 23.2676C62.2513 23.2676 63.3874 23.7298 64.084 24.6543C64.5202 25.2402 64.7318 25.8717 64.7188 26.5488H63.0586C63.026 26.1517 62.8861 25.7904 62.6387 25.4648C62.235 25.0026 61.5352 24.7715 60.5391 24.7715C59.875 24.7715 59.3704 24.8984 59.0254 25.1523C58.6868 25.4062 58.5176 25.7415 58.5176 26.1582C58.5176 26.6139 58.7422 26.9785 59.1914 27.252C59.4518 27.4147 59.8359 27.5579 60.3438 27.6816L61.5059 27.9648C62.7689 28.2708 63.6152 28.5671 64.0449 28.8535C64.7285 29.3027 65.0703 30.0091 65.0703 30.9727C65.0703 31.9036 64.7155 32.7077 64.0059 33.3848C63.3027 34.0618 62.2285 34.4004 60.7832 34.4004C59.2272 34.4004 58.1237 34.0488 57.4727 33.3457C56.8281 32.6361 56.4831 31.7604 56.4375 30.7188H58.127ZM67.9336 20.6211H69.7109V23.541H71.3809V24.9766H69.7109V31.8027C69.7109 32.1673 69.8346 32.4115 70.082 32.5352C70.2188 32.6068 70.4466 32.6426 70.7656 32.6426C70.8503 32.6426 70.9414 32.6426 71.0391 32.6426C71.1367 32.6361 71.2507 32.6263 71.3809 32.6133V34C71.179 34.0586 70.9674 34.1009 70.7461 34.127C70.5312 34.153 70.2969 34.166 70.043 34.166C69.2227 34.166 68.666 33.9577 68.373 33.541C68.0801 33.1178 67.9336 32.571 67.9336 31.9004V24.9766H66.5176V23.541H67.9336V20.6211ZM78.0039 23.3066C78.7461 23.3066 79.4655 23.4824 80.1621 23.834C80.8587 24.179 81.3893 24.6283 81.7539 25.1816C82.1055 25.709 82.3398 26.3242 82.457 27.0273C82.5612 27.5091 82.6133 28.2773 82.6133 29.332H74.9473C74.9798 30.3932 75.2305 31.2461 75.6992 31.8906C76.168 32.5286 76.8939 32.8477 77.877 32.8477C78.7949 32.8477 79.5273 32.5449 80.0742 31.9395C80.3867 31.5879 80.6081 31.181 80.7383 30.7188H82.4668C82.4212 31.1029 82.2682 31.5326 82.0078 32.0078C81.7539 32.4766 81.4674 32.8607 81.1484 33.1602C80.6146 33.681 79.9538 34.0326 79.166 34.2148C78.7428 34.319 78.2643 34.3711 77.7305 34.3711C76.4284 34.3711 75.3249 33.8991 74.4199 32.9551C73.515 32.0046 73.0625 30.6764 73.0625 28.9707C73.0625 27.291 73.5182 25.9271 74.4297 24.8789C75.3411 23.8307 76.5326 23.3066 78.0039 23.3066ZM80.8066 27.9355C80.735 27.1738 80.569 26.5651 80.3086 26.1094C79.8268 25.263 79.0228 24.8398 77.8965 24.8398C77.0892 24.8398 76.4121 25.1328 75.8652 25.7188C75.3184 26.2982 75.0286 27.0371 74.9961 27.9355H80.8066ZM85.3301 23.541H87V25.3477C87.1367 24.9961 87.472 24.5697 88.0059 24.0684C88.5397 23.5605 89.1549 23.3066 89.8516 23.3066C89.8841 23.3066 89.9395 23.3099 90.0176 23.3164C90.0957 23.3229 90.2292 23.3359 90.418 23.3555V25.2109C90.3138 25.1914 90.2161 25.1784 90.125 25.1719C90.0404 25.1654 89.946 25.1621 89.8418 25.1621C88.9564 25.1621 88.276 25.4486 87.8008 26.0215C87.3255 26.5879 87.0879 27.2422 87.0879 27.9844V34H85.3301V23.541ZM96.4746 23.2383C97.653 23.2383 98.61 23.5247 99.3457 24.0977C100.088 24.6706 100.534 25.6569 100.684 27.0566H98.9746C98.8704 26.4121 98.6328 25.8783 98.2617 25.4551C97.8906 25.0254 97.2949 24.8105 96.4746 24.8105C95.3548 24.8105 94.554 25.3574 94.0723 26.4512C93.7598 27.1608 93.6035 28.0365 93.6035 29.0781C93.6035 30.1263 93.8249 31.0085 94.2676 31.7246C94.7103 32.4408 95.4069 32.7988 96.3574 32.7988C97.0866 32.7988 97.6628 32.5775 98.0859 32.1348C98.5156 31.6855 98.8118 31.0736 98.9746 30.2988H100.684C100.488 31.6855 100 32.7012 99.2188 33.3457C98.4375 33.9837 97.4382 34.3027 96.2207 34.3027C94.8535 34.3027 93.763 33.8047 92.9492 32.8086C92.1354 31.806 91.7285 30.556 91.7285 29.0586C91.7285 27.2227 92.1745 25.7936 93.0664 24.7715C93.9583 23.7493 95.0944 23.2383 96.4746 23.2383ZM104.289 31.2168C104.289 31.7246 104.475 32.125 104.846 32.418C105.217 32.7109 105.656 32.8574 106.164 32.8574C106.783 32.8574 107.382 32.7142 107.961 32.4277C108.938 31.9525 109.426 31.1745 109.426 30.0938V28.6777C109.211 28.8145 108.934 28.9284 108.596 29.0195C108.257 29.1107 107.925 29.1758 107.6 29.2148L106.535 29.3516C105.897 29.4362 105.419 29.5697 105.1 29.752C104.559 30.0579 104.289 30.5462 104.289 31.2168ZM108.547 27.6621C108.951 27.61 109.221 27.4408 109.357 27.1543C109.436 26.998 109.475 26.7734 109.475 26.4805C109.475 25.8815 109.26 25.4486 108.83 25.1816C108.407 24.9082 107.798 24.7715 107.004 24.7715C106.086 24.7715 105.435 25.0189 105.051 25.5137C104.836 25.7871 104.696 26.194 104.631 26.7344H102.99C103.023 25.4453 103.439 24.5501 104.24 24.0488C105.048 23.541 105.982 23.2871 107.043 23.2871C108.273 23.2871 109.273 23.5215 110.041 23.9902C110.803 24.459 111.184 25.1882 111.184 26.1777V32.2031C111.184 32.3854 111.219 32.5319 111.291 32.6426C111.369 32.7533 111.529 32.8086 111.77 32.8086C111.848 32.8086 111.936 32.8053 112.033 32.7988C112.131 32.7858 112.235 32.7695 112.346 32.75V34.0488C112.072 34.127 111.864 34.1758 111.721 34.1953C111.577 34.2148 111.382 34.2246 111.135 34.2246C110.529 34.2246 110.09 34.0098 109.816 33.5801C109.673 33.3522 109.572 33.0299 109.514 32.6133C109.156 33.082 108.641 33.4889 107.971 33.834C107.3 34.179 106.561 34.3516 105.754 34.3516C104.784 34.3516 103.99 34.0586 103.371 33.4727C102.759 32.8802 102.453 32.1413 102.453 31.2559C102.453 30.2858 102.756 29.5339 103.361 29C103.967 28.4661 104.761 28.1374 105.744 28.0137L108.547 27.6621ZM114.623 23.541H116.293V25.3477C116.43 24.9961 116.765 24.5697 117.299 24.0684C117.833 23.5605 118.448 23.3066 119.145 23.3066C119.177 23.3066 119.232 23.3099 119.311 23.3164C119.389 23.3229 119.522 23.3359 119.711 23.3555V25.2109C119.607 25.1914 119.509 25.1784 119.418 25.1719C119.333 25.1654 119.239 25.1621 119.135 25.1621C118.249 25.1621 117.569 25.4486 117.094 26.0215C116.618 26.5879 116.381 27.2422 116.381 27.9844V34H114.623V23.541ZM122.848 28.8926C122.848 30.0124 123.085 30.9499 123.561 31.7051C124.036 32.4603 124.798 32.8379 125.846 32.8379C126.66 32.8379 127.327 32.4896 127.848 31.793C128.375 31.0898 128.639 30.084 128.639 28.7754C128.639 27.4538 128.368 26.4772 127.828 25.8457C127.288 25.2077 126.62 24.8887 125.826 24.8887C124.941 24.8887 124.221 25.2272 123.668 25.9043C123.121 26.5814 122.848 27.5775 122.848 28.8926ZM125.494 23.3555C126.295 23.3555 126.965 23.5247 127.506 23.8633C127.818 24.0586 128.173 24.4004 128.57 24.8887V19.6055H130.26V34H128.678V32.5449C128.268 33.1895 127.783 33.6549 127.223 33.9414C126.663 34.2279 126.021 34.3711 125.299 34.3711C124.133 34.3711 123.124 33.8828 122.271 32.9062C121.419 31.9232 120.992 30.6178 120.992 28.9902C120.992 27.4668 121.38 26.1484 122.154 25.0352C122.936 23.9154 124.049 23.3555 125.494 23.3555Z" fill="white"/>
<path d="M254.416 133.974H266.584V155.837H254.416V133.974Z" fill="#FF5F00"/>
<path d="M246.189 166.841V164.523C246.189 163.635 245.648 163.056 244.721 163.056C244.258 163.056 243.756 163.21 243.408 163.712C243.138 163.287 242.751 163.056 242.172 163.056C241.786 163.056 241.4 163.171 241.09 163.596V163.133H240.279V166.841H241.09V164.794C241.09 164.137 241.438 163.828 241.979 163.828C242.52 163.828 242.79 164.176 242.79 164.794V166.841H243.601V164.794C243.601 164.137 243.987 163.828 244.49 163.828C245.03 163.828 245.301 164.176 245.301 164.794V166.841H246.189V166.841ZM258.202 163.133H256.889V162.013H256.078V163.133H255.344V163.867H256.077V165.566C256.077 166.416 256.425 166.918 257.352 166.918C257.7 166.918 258.086 166.802 258.357 166.648L258.125 165.953C257.893 166.107 257.623 166.146 257.429 166.146C257.043 166.146 256.889 165.914 256.889 165.528V163.867H258.202V163.133V163.133ZM265.077 163.055C264.614 163.055 264.305 163.287 264.112 163.596V163.133H263.301V166.841H264.112V164.755C264.112 164.137 264.382 163.79 264.884 163.79C265.039 163.79 265.232 163.828 265.386 163.867L265.618 163.094C265.464 163.056 265.232 163.056 265.077 163.056V163.055ZM254.687 163.442C254.301 163.171 253.76 163.056 253.18 163.056C252.254 163.056 251.636 163.519 251.636 164.253C251.636 164.871 252.099 165.219 252.91 165.335L253.296 165.373C253.721 165.45 253.953 165.566 253.953 165.759C253.953 166.03 253.644 166.223 253.103 166.223C252.562 166.223 252.138 166.03 251.867 165.837L251.481 166.455C251.906 166.764 252.485 166.918 253.064 166.918C254.146 166.918 254.764 166.416 254.764 165.721C254.764 165.064 254.262 164.716 253.489 164.601L253.103 164.562C252.756 164.523 252.485 164.446 252.485 164.214C252.485 163.944 252.756 163.79 253.18 163.79C253.644 163.79 254.108 163.983 254.339 164.098L254.687 163.442V163.442ZM276.241 163.056C275.777 163.056 275.468 163.287 275.275 163.596V163.133H274.464V166.841H275.275V164.755C275.275 164.137 275.545 163.79 276.047 163.79C276.202 163.79 276.395 163.828 276.549 163.867L276.781 163.094C276.627 163.056 276.395 163.056 276.241 163.056V163.056ZM265.889 164.987C265.889 166.107 266.661 166.918 267.859 166.918C268.399 166.918 268.785 166.802 269.172 166.493L268.785 165.837C268.477 166.068 268.168 166.184 267.82 166.184C267.163 166.184 266.7 165.721 266.7 164.987C266.7 164.292 267.163 163.828 267.82 163.79C268.168 163.79 268.477 163.905 268.785 164.137L269.172 163.481C268.785 163.171 268.399 163.056 267.859 163.056C266.661 163.056 265.889 163.867 265.889 164.987ZM273.382 164.987V163.133H272.571V163.596C272.301 163.249 271.914 163.056 271.412 163.056C270.369 163.056 269.558 163.867 269.558 164.987C269.558 166.107 270.369 166.918 271.412 166.918C271.953 166.918 272.339 166.725 272.571 166.377V166.841H273.382V164.987V164.987ZM270.408 164.987C270.408 164.33 270.833 163.79 271.528 163.79C272.185 163.79 272.648 164.292 272.648 164.987C272.648 165.644 272.185 166.184 271.528 166.184C270.833 166.146 270.408 165.644 270.408 164.987V164.987ZM260.713 163.056C259.631 163.056 258.859 163.828 258.859 164.987C258.859 166.146 259.631 166.918 260.751 166.918C261.292 166.918 261.833 166.764 262.258 166.416L261.871 165.837C261.562 166.068 261.176 166.223 260.79 166.223C260.288 166.223 259.786 165.991 259.67 165.334H262.412V165.026C262.451 163.828 261.756 163.056 260.713 163.056H260.713ZM260.713 163.751C261.215 163.751 261.563 164.06 261.64 164.639H259.708C259.786 164.137 260.133 163.751 260.713 163.751ZM280.837 164.987V161.665H280.026V163.596C279.755 163.249 279.369 163.056 278.867 163.056C277.824 163.056 277.013 163.867 277.013 164.987C277.013 166.107 277.824 166.918 278.867 166.918C279.408 166.918 279.794 166.725 280.026 166.377V166.841H280.837V164.987V164.987ZM277.863 164.987C277.863 164.33 278.288 163.79 278.983 163.79C279.64 163.79 280.103 164.292 280.103 164.987C280.103 165.644 279.64 166.184 278.983 166.184C278.288 166.146 277.863 165.644 277.863 164.987V164.987ZM250.747 164.987V163.133H249.936V163.596C249.665 163.249 249.279 163.056 248.777 163.056C247.734 163.056 246.923 163.867 246.923 164.987C246.923 166.107 247.734 166.918 248.777 166.918C249.318 166.918 249.704 166.725 249.936 166.377V166.841H250.747V164.987V164.987ZM247.734 164.987C247.734 164.33 248.159 163.79 248.854 163.79C249.511 163.79 249.975 164.292 249.975 164.987C249.975 165.644 249.511 166.184 248.854 166.184C248.159 166.146 247.734 165.644 247.734 164.987V164.987Z" fill="white"/>
<path d="M255.189 144.906C255.189 140.464 257.275 136.524 260.48 133.974C258.124 132.12 255.15 131 251.906 131C244.219 131 238 137.219 238 144.906C238 152.592 244.219 158.811 251.906 158.811C255.15 158.811 258.124 157.691 260.48 155.837C257.275 153.326 255.189 149.347 255.189 144.906V144.906Z" fill="#EB001B"/>
<path d="M283 144.906C283 152.592 276.781 158.811 269.094 158.811C265.849 158.811 262.875 157.691 260.519 155.837C263.764 153.287 265.811 149.347 265.811 144.906C265.811 140.464 263.725 136.524 260.519 133.974C262.875 132.12 265.849 131 269.094 131C276.781 131 283 137.257 283 144.906H283Z" fill="#F79E1B"/>
<path opacity="0.9" d="M28.7295 116.505C28.8115 117.207 29.1374 117.692 29.707 117.961C29.9987 118.098 30.3359 118.166 30.7188 118.166C31.4479 118.166 31.988 117.934 32.3389 117.469C32.6898 117.004 32.8652 116.489 32.8652 115.924C32.8652 115.24 32.6556 114.712 32.2363 114.338C31.8216 113.964 31.3226 113.777 30.7393 113.777C30.3154 113.777 29.9508 113.859 29.6455 114.023C29.3447 114.188 29.0872 114.415 28.873 114.707L27.8066 114.646L28.5518 109.375H33.6377V110.564H29.4746L29.0576 113.285C29.2855 113.112 29.502 112.982 29.707 112.896C30.0716 112.745 30.4932 112.67 30.9717 112.67C31.8695 112.67 32.6305 112.959 33.2549 113.538C33.8792 114.117 34.1914 114.851 34.1914 115.739C34.1914 116.664 33.9043 117.48 33.3301 118.187C32.7604 118.893 31.849 119.246 30.5957 119.246C29.7982 119.246 29.0918 119.023 28.4766 118.576C27.8659 118.125 27.5241 117.435 27.4512 116.505H28.7295ZM37.0225 116.505C37.1045 117.207 37.4303 117.692 38 117.961C38.2917 118.098 38.6289 118.166 39.0117 118.166C39.7409 118.166 40.2809 117.934 40.6318 117.469C40.9827 117.004 41.1582 116.489 41.1582 115.924C41.1582 115.24 40.9486 114.712 40.5293 114.338C40.1146 113.964 39.6156 113.777 39.0322 113.777C38.6084 113.777 38.2438 113.859 37.9385 114.023C37.6377 114.188 37.3802 114.415 37.166 114.707L36.0996 114.646L36.8447 109.375H41.9307V110.564H37.7676L37.3506 113.285C37.5785 113.112 37.7949 112.982 38 112.896C38.3646 112.745 38.7861 112.67 39.2646 112.67C40.1624 112.67 40.9235 112.959 41.5479 113.538C42.1722 114.117 42.4844 114.851 42.4844 115.739C42.4844 116.664 42.1973 117.48 41.623 118.187C41.0534 118.893 40.1419 119.246 38.8887 119.246C38.0911 119.246 37.3848 119.023 36.7695 118.576C36.1589 118.125 35.8171 117.435 35.7441 116.505H37.0225ZM45.3154 116.505C45.3975 117.207 45.7233 117.692 46.293 117.961C46.5846 118.098 46.9219 118.166 47.3047 118.166C48.0339 118.166 48.5739 117.934 48.9248 117.469C49.2757 117.004 49.4512 116.489 49.4512 115.924C49.4512 115.24 49.2415 114.712 48.8223 114.338C48.4076 113.964 47.9085 113.777 47.3252 113.777C46.9014 113.777 46.5368 113.859 46.2314 114.023C45.9307 114.188 45.6732 114.415 45.459 114.707L44.3926 114.646L45.1377 109.375H50.2236V110.564H46.0605L45.6436 113.285C45.8714 113.112 46.0879 112.982 46.293 112.896C46.6576 112.745 47.0791 112.67 47.5576 112.67C48.4554 112.67 49.2165 112.959 49.8408 113.538C50.4652 114.117 50.7773 114.851 50.7773 115.739C50.7773 116.664 50.4902 117.48 49.916 118.187C49.3464 118.893 48.4349 119.246 47.1816 119.246C46.3841 119.246 45.6777 119.023 45.0625 118.576C44.4518 118.125 44.11 117.435 44.0371 116.505H45.3154ZM53.6084 116.505C53.6904 117.207 54.0163 117.692 54.5859 117.961C54.8776 118.098 55.2148 118.166 55.5977 118.166C56.3268 118.166 56.8669 117.934 57.2178 117.469C57.5687 117.004 57.7441 116.489 57.7441 115.924C57.7441 115.24 57.5345 114.712 57.1152 114.338C56.7005 113.964 56.2015 113.777 55.6182 113.777C55.1943 113.777 54.8298 113.859 54.5244 114.023C54.2236 114.188 53.9661 114.415 53.752 114.707L52.6855 114.646L53.4307 109.375H58.5166V110.564H54.3535L53.9365 113.285C54.1644 113.112 54.3809 112.982 54.5859 112.896C54.9505 112.745 55.3721 112.67 55.8506 112.67C56.7484 112.67 57.5094 112.959 58.1338 113.538C58.7581 114.117 59.0703 114.851 59.0703 115.739C59.0703 116.664 58.7832 117.48 58.209 118.187C57.6393 118.893 56.7279 119.246 55.4746 119.246C54.6771 119.246 53.9707 119.023 53.3555 118.576C52.7448 118.125 52.403 117.435 52.3301 116.505H53.6084ZM66.2979 116.505C66.3799 117.207 66.7057 117.692 67.2754 117.961C67.5671 118.098 67.9043 118.166 68.2871 118.166C69.0163 118.166 69.5563 117.934 69.9072 117.469C70.2581 117.004 70.4336 116.489 70.4336 115.924C70.4336 115.24 70.224 114.712 69.8047 114.338C69.39 113.964 68.891 113.777 68.3076 113.777C67.8838 113.777 67.5192 113.859 67.2139 114.023C66.9131 114.188 66.6556 114.415 66.4414 114.707L65.375 114.646L66.1201 109.375H71.2061V110.564H67.043L66.626 113.285C66.8538 113.112 67.0703 112.982 67.2754 112.896C67.64 112.745 68.0615 112.67 68.54 112.67C69.4378 112.67 70.1989 112.959 70.8232 113.538C71.4476 114.117 71.7598 114.851 71.7598 115.739C71.7598 116.664 71.4727 117.48 70.8984 118.187C70.3288 118.893 69.4173 119.246 68.1641 119.246C67.3665 119.246 66.6602 119.023 66.0449 118.576C65.4342 118.125 65.0924 117.435 65.0195 116.505H66.2979ZM74.5908 116.505C74.6729 117.207 74.9987 117.692 75.5684 117.961C75.86 118.098 76.1973 118.166 76.5801 118.166C77.3092 118.166 77.8493 117.934 78.2002 117.469C78.5511 117.004 78.7266 116.489 78.7266 115.924C78.7266 115.24 78.5169 114.712 78.0977 114.338C77.6829 113.964 77.1839 113.777 76.6006 113.777C76.1768 113.777 75.8122 113.859 75.5068 114.023C75.2061 114.188 74.9486 114.415 74.7344 114.707L73.668 114.646L74.4131 109.375H79.499V110.564H75.3359L74.9189 113.285C75.1468 113.112 75.3633 112.982 75.5684 112.896C75.9329 112.745 76.3545 112.67 76.833 112.67C77.7308 112.67 78.4919 112.959 79.1162 113.538C79.7406 114.117 80.0527 114.851 80.0527 115.739C80.0527 116.664 79.7656 117.48 79.1914 118.187C78.6217 118.893 77.7103 119.246 76.457 119.246C75.6595 119.246 74.9531 119.023 74.3379 118.576C73.7272 118.125 73.3854 117.435 73.3125 116.505H74.5908ZM82.8838 116.505C82.9658 117.207 83.2917 117.692 83.8613 117.961C84.153 118.098 84.4902 118.166 84.873 118.166C85.6022 118.166 86.1423 117.934 86.4932 117.469C86.8441 117.004 87.0195 116.489 87.0195 115.924C87.0195 115.24 86.8099 114.712 86.3906 114.338C85.9759 113.964 85.4769 113.777 84.8936 113.777C84.4697 113.777 84.1051 113.859 83.7998 114.023C83.499 114.188 83.2415 114.415 83.0273 114.707L81.9609 114.646L82.7061 109.375H87.792V110.564H83.6289L83.2119 113.285C83.4398 113.112 83.6562 112.982 83.8613 112.896C84.2259 112.745 84.6475 112.67 85.126 112.67C86.0238 112.67 86.7848 112.959 87.4092 113.538C88.0335 114.117 88.3457 114.851 88.3457 115.739C88.3457 116.664 88.0586 117.48 87.4844 118.187C86.9147 118.893 86.0033 119.246 84.75 119.246C83.9525 119.246 83.2461 119.023 82.6309 118.576C82.0202 118.125 81.6784 117.435 81.6055 116.505H82.8838ZM91.1768 116.505C91.2588 117.207 91.5846 117.692 92.1543 117.961C92.446 118.098 92.7832 118.166 93.166 118.166C93.8952 118.166 94.4352 117.934 94.7861 117.469C95.137 117.004 95.3125 116.489 95.3125 115.924C95.3125 115.24 95.1029 114.712 94.6836 114.338C94.2689 113.964 93.7699 113.777 93.1865 113.777C92.7627 113.777 92.3981 113.859 92.0928 114.023C91.792 114.188 91.5345 114.415 91.3203 114.707L90.2539 114.646L90.999 109.375H96.085V110.564H91.9219L91.5049 113.285C91.7327 113.112 91.9492 112.982 92.1543 112.896C92.5189 112.745 92.9404 112.67 93.4189 112.67C94.3167 112.67 95.0778 112.959 95.7021 113.538C96.3265 114.117 96.6387 114.851 96.6387 115.739C96.6387 116.664 96.3516 117.48 95.7773 118.187C95.2077 118.893 94.2962 119.246 93.043 119.246C92.2454 119.246 91.5391 119.023 90.9238 118.576C90.3132 118.125 89.9714 117.435 89.8984 116.505H91.1768ZM103.866 116.505C103.948 117.207 104.274 117.692 104.844 117.961C105.135 118.098 105.473 118.166 105.855 118.166C106.585 118.166 107.125 117.934 107.476 117.469C107.826 117.004 108.002 116.489 108.002 115.924C108.002 115.24 107.792 114.712 107.373 114.338C106.958 113.964 106.459 113.777 105.876 113.777C105.452 113.777 105.088 113.859 104.782 114.023C104.481 114.188 104.224 114.415 104.01 114.707L102.943 114.646L103.688 109.375H108.774V110.564H104.611L104.194 113.285C104.422 113.112 104.639 112.982 104.844 112.896C105.208 112.745 105.63 112.67 106.108 112.67C107.006 112.67 107.767 112.959 108.392 113.538C109.016 114.117 109.328 114.851 109.328 115.739C109.328 116.664 109.041 117.48 108.467 118.187C107.897 118.893 106.986 119.246 105.732 119.246C104.935 119.246 104.229 119.023 103.613 118.576C103.003 118.125 102.661 117.435 102.588 116.505H103.866ZM112.159 116.505C112.241 117.207 112.567 117.692 113.137 117.961C113.428 118.098 113.766 118.166 114.148 118.166C114.878 118.166 115.418 117.934 115.769 117.469C116.119 117.004 116.295 116.489 116.295 115.924C116.295 115.24 116.085 114.712 115.666 114.338C115.251 113.964 114.752 113.777 114.169 113.777C113.745 113.777 113.381 113.859 113.075 114.023C112.774 114.188 112.517 114.415 112.303 114.707L111.236 114.646L111.981 109.375H117.067V110.564H112.904L112.487 113.285C112.715 113.112 112.932 112.982 113.137 112.896C113.501 112.745 113.923 112.67 114.401 112.67C115.299 112.67 116.06 112.959 116.685 113.538C117.309 114.117 117.621 114.851 117.621 115.739C117.621 116.664 117.334 117.48 116.76 118.187C116.19 118.893 115.279 119.246 114.025 119.246C113.228 119.246 112.521 119.023 111.906 118.576C111.296 118.125 110.954 117.435 110.881 116.505H112.159ZM120.452 116.505C120.534 117.207 120.86 117.692 121.43 117.961C121.721 118.098 122.059 118.166 122.441 118.166C123.171 118.166 123.711 117.934 124.062 117.469C124.412 117.004 124.588 116.489 124.588 115.924C124.588 115.24 124.378 114.712 123.959 114.338C123.544 113.964 123.045 113.777 122.462 113.777C122.038 113.777 121.674 113.859 121.368 114.023C121.067 114.188 120.81 114.415 120.596 114.707L119.529 114.646L120.274 109.375H125.36V110.564H121.197L120.78 113.285C121.008 113.112 121.225 112.982 121.43 112.896C121.794 112.745 122.216 112.67 122.694 112.67C123.592 112.67 124.353 112.959 124.978 113.538C125.602 114.117 125.914 114.851 125.914 115.739C125.914 116.664 125.627 117.48 125.053 118.187C124.483 118.893 123.572 119.246 122.318 119.246C121.521 119.246 120.814 119.023 120.199 118.576C119.589 118.125 119.247 117.435 119.174 116.505H120.452ZM128.745 116.505C128.827 117.207 129.153 117.692 129.723 117.961C130.014 118.098 130.352 118.166 130.734 118.166C131.464 118.166 132.004 117.934 132.354 117.469C132.705 117.004 132.881 116.489 132.881 115.924C132.881 115.24 132.671 114.712 132.252 114.338C131.837 113.964 131.338 113.777 130.755 113.777C130.331 113.777 129.966 113.859 129.661 114.023C129.36 114.188 129.103 114.415 128.889 114.707L127.822 114.646L128.567 109.375H133.653V110.564H129.49L129.073 113.285C129.301 113.112 129.518 112.982 129.723 112.896C130.087 112.745 130.509 112.67 130.987 112.67C131.885 112.67 132.646 112.959 133.271 113.538C133.895 114.117 134.207 114.851 134.207 115.739C134.207 116.664 133.92 117.48 133.346 118.187C132.776 118.893 131.865 119.246 130.611 119.246C129.814 119.246 129.107 119.023 128.492 118.576C127.882 118.125 127.54 117.435 127.467 116.505H128.745ZM144.333 115.534V111.098L141.195 115.534H144.333ZM144.354 119V116.607H140.061V115.404L144.545 109.184H145.584V115.534H147.026V116.607H145.584V119H144.354ZM152.626 115.534V111.098L149.488 115.534H152.626ZM152.646 119V116.607H148.354V115.404L152.838 109.184H153.877V115.534H155.319V116.607H153.877V119H152.646ZM160.919 115.534V111.098L157.781 115.534H160.919ZM160.939 119V116.607H156.646V115.404L161.131 109.184H162.17V115.534H163.612V116.607H162.17V119H160.939ZM169.212 115.534V111.098L166.074 115.534H169.212ZM169.232 119V116.607H164.939V115.404L169.424 109.184H170.463V115.534H171.905V116.607H170.463V119H169.232Z" fill="white"/>
<path opacity="0.9" d="M32.332 161.473L31.0254 157.67L29.6367 161.473H32.332ZM30.416 156.393H31.7344L34.8574 165H33.5801L32.707 162.422H29.3027L28.3711 165H27.1758L30.416 156.393ZM36.3066 156.393H37.3613V165H36.3066V156.393ZM39.4492 158.754H40.5215V165H39.4492V158.754ZM39.4492 156.393H40.5215V157.588H39.4492V156.393ZM45.041 158.543C45.748 158.543 46.3223 158.715 46.7637 159.059C47.209 159.402 47.4766 159.994 47.5664 160.834H46.541C46.4785 160.447 46.3359 160.127 46.1133 159.873C45.8906 159.615 45.5332 159.486 45.041 159.486C44.3691 159.486 43.8887 159.814 43.5996 160.471C43.4121 160.896 43.3184 161.422 43.3184 162.047C43.3184 162.676 43.4512 163.205 43.7168 163.635C43.9824 164.064 44.4004 164.279 44.9707 164.279C45.4082 164.279 45.7539 164.146 46.0078 163.881C46.2656 163.611 46.4434 163.244 46.541 162.779H47.5664C47.4492 163.611 47.1562 164.221 46.6875 164.607C46.2188 164.99 45.6191 165.182 44.8887 165.182C44.0684 165.182 43.4141 164.883 42.9258 164.285C42.4375 163.684 42.1934 162.934 42.1934 162.035C42.1934 160.934 42.4609 160.076 42.9961 159.463C43.5312 158.85 44.2129 158.543 45.041 158.543ZM51.7344 158.584C52.1797 158.584 52.6113 158.689 53.0293 158.9C53.4473 159.107 53.7656 159.377 53.9844 159.709C54.1953 160.025 54.3359 160.395 54.4062 160.816C54.4688 161.105 54.5 161.566 54.5 162.199H49.9004C49.9199 162.836 50.0703 163.348 50.3516 163.734C50.6328 164.117 51.0684 164.309 51.6582 164.309C52.209 164.309 52.6484 164.127 52.9766 163.764C53.1641 163.553 53.2969 163.309 53.375 163.031H54.4121C54.3848 163.262 54.293 163.52 54.1367 163.805C53.9844 164.086 53.8125 164.316 53.6211 164.496C53.3008 164.809 52.9043 165.02 52.4316 165.129C52.1777 165.191 51.8906 165.223 51.5703 165.223C50.7891 165.223 50.127 164.939 49.584 164.373C49.041 163.803 48.7695 163.006 48.7695 161.982C48.7695 160.975 49.043 160.156 49.5898 159.527C50.1367 158.898 50.8516 158.584 51.7344 158.584ZM53.416 161.361C53.373 160.904 53.2734 160.539 53.1172 160.266C52.8281 159.758 52.3457 159.504 51.6699 159.504C51.1855 159.504 50.7793 159.68 50.4512 160.031C50.123 160.379 49.9492 160.822 49.9297 161.361H53.416ZM61.043 162.223C61.0703 162.711 61.1855 163.107 61.3887 163.412C61.7754 163.982 62.457 164.268 63.4336 164.268C63.8711 164.268 64.2695 164.205 64.6289 164.08C65.3242 163.838 65.6719 163.404 65.6719 162.779C65.6719 162.311 65.5254 161.977 65.2324 161.777C64.9355 161.582 64.4707 161.412 63.8379 161.268L62.6719 161.004C61.9102 160.832 61.3711 160.643 61.0547 160.436C60.5078 160.076 60.2344 159.539 60.2344 158.824C60.2344 158.051 60.502 157.416 61.0371 156.92C61.5723 156.424 62.3301 156.176 63.3105 156.176C64.2129 156.176 64.9785 156.395 65.6074 156.832C66.2402 157.266 66.5566 157.961 66.5566 158.918H65.4609C65.4023 158.457 65.2773 158.104 65.0859 157.857C64.7305 157.408 64.127 157.184 63.2754 157.184C62.5879 157.184 62.0938 157.328 61.793 157.617C61.4922 157.906 61.3418 158.242 61.3418 158.625C61.3418 159.047 61.5176 159.355 61.8691 159.551C62.0996 159.676 62.6211 159.832 63.4336 160.02L64.6406 160.295C65.2227 160.428 65.6719 160.609 65.9883 160.84C66.5352 161.242 66.8086 161.826 66.8086 162.592C66.8086 163.545 66.4609 164.227 65.7656 164.637C65.0742 165.047 64.2695 165.252 63.3516 165.252C62.2812 165.252 61.4434 164.979 60.8379 164.432C60.2324 163.889 59.9355 163.152 59.9473 162.223H61.043ZM68.8555 156.973H69.9219V158.725H70.9238V159.586H69.9219V163.682C69.9219 163.9 69.9961 164.047 70.1445 164.121C70.2266 164.164 70.3633 164.186 70.5547 164.186C70.6055 164.186 70.6602 164.186 70.7188 164.186C70.7773 164.182 70.8457 164.176 70.9238 164.168V165C70.8027 165.035 70.6758 165.061 70.543 165.076C70.4141 165.092 70.2734 165.1 70.1211 165.1C69.6289 165.1 69.2949 164.975 69.1191 164.725C68.9434 164.471 68.8555 164.143 68.8555 163.74V159.586H68.0059V158.725H68.8555V156.973ZM72.5137 158.725H73.5156V159.809C73.5977 159.598 73.7988 159.342 74.1191 159.041C74.4395 158.736 74.8086 158.584 75.2266 158.584C75.2461 158.584 75.2793 158.586 75.3262 158.59C75.373 158.594 75.4531 158.602 75.5664 158.613V159.727C75.5039 159.715 75.4453 159.707 75.3906 159.703C75.3398 159.699 75.2832 159.697 75.2207 159.697C74.6895 159.697 74.2812 159.869 73.9961 160.213C73.7109 160.553 73.5684 160.945 73.5684 161.391V165H72.5137V158.725ZM77.7891 163.33C77.7891 163.635 77.9004 163.875 78.123 164.051C78.3457 164.227 78.6094 164.314 78.9141 164.314C79.2852 164.314 79.6445 164.229 79.9922 164.057C80.5781 163.771 80.8711 163.305 80.8711 162.656V161.807C80.7422 161.889 80.5762 161.957 80.373 162.012C80.1699 162.066 79.9707 162.105 79.7754 162.129L79.1367 162.211C78.7539 162.262 78.4668 162.342 78.2754 162.451C77.9512 162.635 77.7891 162.928 77.7891 163.33ZM80.3438 161.197C80.5859 161.166 80.748 161.064 80.8301 160.893C80.877 160.799 80.9004 160.664 80.9004 160.488C80.9004 160.129 80.7715 159.869 80.5137 159.709C80.2598 159.545 79.8945 159.463 79.418 159.463C78.8672 159.463 78.4766 159.611 78.2461 159.908C78.1172 160.072 78.0332 160.316 77.9941 160.641H77.0098C77.0293 159.867 77.2793 159.33 77.7598 159.029C78.2441 158.725 78.8047 158.572 79.4414 158.572C80.1797 158.572 80.7793 158.713 81.2402 158.994C81.6973 159.275 81.9258 159.713 81.9258 160.307V163.922C81.9258 164.031 81.9473 164.119 81.9902 164.186C82.0371 164.252 82.1328 164.285 82.2773 164.285C82.3242 164.285 82.377 164.283 82.4355 164.279C82.4941 164.271 82.5566 164.262 82.623 164.25V165.029C82.459 165.076 82.334 165.105 82.248 165.117C82.1621 165.129 82.0449 165.135 81.8965 165.135C81.5332 165.135 81.2695 165.006 81.1055 164.748C81.0195 164.611 80.959 164.418 80.9238 164.168C80.709 164.449 80.4004 164.693 79.998 164.9C79.5957 165.107 79.1523 165.211 78.668 165.211C78.0859 165.211 77.6094 165.035 77.2383 164.684C76.8711 164.328 76.6875 163.885 76.6875 163.354C76.6875 162.771 76.8691 162.32 77.2324 162C77.5957 161.68 78.0723 161.482 78.6621 161.408L80.3438 161.197ZM84.1602 158.725H85.1621V159.615C85.459 159.248 85.7734 158.984 86.1055 158.824C86.4375 158.664 86.8066 158.584 87.2129 158.584C88.1035 158.584 88.7051 158.895 89.0176 159.516C89.1895 159.855 89.2754 160.342 89.2754 160.975V165H88.2031V161.045C88.2031 160.662 88.1465 160.354 88.0332 160.119C87.8457 159.729 87.5059 159.533 87.0137 159.533C86.7637 159.533 86.5586 159.559 86.3984 159.609C86.1094 159.695 85.8555 159.867 85.6367 160.125C85.4609 160.332 85.3457 160.547 85.291 160.77C85.2402 160.988 85.2148 161.303 85.2148 161.713V165H84.1602V158.725ZM93.5547 158.613C94.0469 158.613 94.4766 158.734 94.8438 158.977C95.043 159.113 95.2461 159.312 95.4531 159.574V158.783H96.4258V164.49C96.4258 165.287 96.3086 165.916 96.0742 166.377C95.6367 167.229 94.8105 167.654 93.5957 167.654C92.9199 167.654 92.3516 167.502 91.8906 167.197C91.4297 166.896 91.1719 166.424 91.1172 165.779H92.1895C92.2402 166.061 92.3418 166.277 92.4941 166.43C92.7324 166.664 93.1074 166.781 93.6191 166.781C94.4277 166.781 94.957 166.496 95.207 165.926C95.3555 165.59 95.4238 164.99 95.4121 164.127C95.2012 164.447 94.9473 164.686 94.6504 164.842C94.3535 164.998 93.9609 165.076 93.4727 165.076C92.793 165.076 92.1973 164.836 91.6855 164.355C91.1777 163.871 90.9238 163.072 90.9238 161.959C90.9238 160.908 91.1797 160.088 91.6914 159.498C92.207 158.908 92.8281 158.613 93.5547 158.613ZM95.4531 161.836C95.4531 161.059 95.293 160.482 94.9727 160.107C94.6523 159.732 94.2441 159.545 93.748 159.545C93.0059 159.545 92.498 159.893 92.2246 160.588C92.0801 160.959 92.0078 161.445 92.0078 162.047C92.0078 162.754 92.1504 163.293 92.4355 163.664C92.7246 164.031 93.1113 164.215 93.5957 164.215C94.3535 164.215 94.8867 163.873 95.1953 163.189C95.3672 162.803 95.4531 162.352 95.4531 161.836ZM101.133 158.584C101.578 158.584 102.01 158.689 102.428 158.9C102.846 159.107 103.164 159.377 103.383 159.709C103.594 160.025 103.734 160.395 103.805 160.816C103.867 161.105 103.898 161.566 103.898 162.199H99.2988C99.3184 162.836 99.4688 163.348 99.75 163.734C100.031 164.117 100.467 164.309 101.057 164.309C101.607 164.309 102.047 164.127 102.375 163.764C102.562 163.553 102.695 163.309 102.773 163.031H103.811C103.783 163.262 103.691 163.52 103.535 163.805C103.383 164.086 103.211 164.316 103.02 164.496C102.699 164.809 102.303 165.02 101.83 165.129C101.576 165.191 101.289 165.223 100.969 165.223C100.188 165.223 99.5254 164.939 98.9824 164.373C98.4395 163.803 98.168 163.006 98.168 161.982C98.168 160.975 98.4414 160.156 98.9883 159.527C99.5352 158.898 100.25 158.584 101.133 158.584ZM102.814 161.361C102.771 160.904 102.672 160.539 102.516 160.266C102.227 159.758 101.744 159.504 101.068 159.504C100.584 159.504 100.178 159.68 99.8496 160.031C99.5215 160.379 99.3477 160.822 99.3281 161.361H102.814Z" fill="white"/>
<path opacity="0.9" d="M27.7969 126.696L29.0332 130.361L30.2549 126.696H30.9082L29.3379 131H28.7197L27.1523 126.696H27.7969ZM31.8477 130.165C31.8477 130.317 31.9033 130.438 32.0146 130.525C32.126 130.613 32.2578 130.657 32.4102 130.657C32.5957 130.657 32.7754 130.614 32.9492 130.528C33.2422 130.386 33.3887 130.152 33.3887 129.828V129.403C33.3242 129.444 33.2412 129.479 33.1396 129.506C33.0381 129.533 32.9385 129.553 32.8408 129.564L32.5215 129.605C32.3301 129.631 32.1865 129.671 32.0908 129.726C31.9287 129.817 31.8477 129.964 31.8477 130.165ZM33.125 129.099C33.2461 129.083 33.3271 129.032 33.3682 128.946C33.3916 128.899 33.4033 128.832 33.4033 128.744C33.4033 128.564 33.3389 128.435 33.21 128.354C33.083 128.272 32.9004 128.231 32.6621 128.231C32.3867 128.231 32.1914 128.306 32.0762 128.454C32.0117 128.536 31.9697 128.658 31.9502 128.82H31.458C31.4678 128.434 31.5928 128.165 31.833 128.015C32.0752 127.862 32.3555 127.786 32.6738 127.786C33.043 127.786 33.3428 127.856 33.5732 127.997C33.8018 128.138 33.916 128.356 33.916 128.653V130.461C33.916 130.516 33.9268 130.56 33.9482 130.593C33.9717 130.626 34.0195 130.643 34.0918 130.643C34.1152 130.643 34.1416 130.642 34.1709 130.64C34.2002 130.636 34.2314 130.631 34.2646 130.625V131.015C34.1826 131.038 34.1201 131.053 34.0771 131.059C34.0342 131.064 33.9756 131.067 33.9014 131.067C33.7197 131.067 33.5879 131.003 33.5059 130.874C33.4629 130.806 33.4326 130.709 33.415 130.584C33.3076 130.725 33.1533 130.847 32.9521 130.95C32.751 131.054 32.5293 131.105 32.2871 131.105C31.9961 131.105 31.7578 131.018 31.5723 130.842C31.3887 130.664 31.2969 130.442 31.2969 130.177C31.2969 129.886 31.3877 129.66 31.5693 129.5C31.751 129.34 31.9893 129.241 32.2842 129.204L33.125 129.099ZM35.2979 126.696H35.8252V131H35.2979V126.696ZM37.1191 127.877H37.6553V131H37.1191V127.877ZM37.1191 126.696H37.6553V127.294H37.1191V126.696ZM39.2891 129.468C39.2891 129.804 39.3604 130.085 39.5029 130.312C39.6455 130.538 39.874 130.651 40.1885 130.651C40.4326 130.651 40.6328 130.547 40.7891 130.338C40.9473 130.127 41.0264 129.825 41.0264 129.433C41.0264 129.036 40.9453 128.743 40.7832 128.554C40.6211 128.362 40.4209 128.267 40.1826 128.267C39.917 128.267 39.7012 128.368 39.5352 128.571C39.3711 128.774 39.2891 129.073 39.2891 129.468ZM40.083 127.807C40.3232 127.807 40.5244 127.857 40.6865 127.959C40.7803 128.018 40.8867 128.12 41.0059 128.267V126.682H41.5127V131H41.0381V130.563C40.915 130.757 40.7695 130.896 40.6016 130.982C40.4336 131.068 40.2412 131.111 40.0244 131.111C39.6748 131.111 39.3721 130.965 39.1162 130.672C38.8604 130.377 38.7324 129.985 38.7324 129.497C38.7324 129.04 38.8486 128.645 39.0811 128.311C39.3154 127.975 39.6494 127.807 40.083 127.807ZM45.0703 126.986H45.6035V127.862H46.1045V128.293H45.6035V130.341C45.6035 130.45 45.6406 130.523 45.7148 130.561C45.7559 130.582 45.8242 130.593 45.9199 130.593C45.9453 130.593 45.9727 130.593 46.002 130.593C46.0312 130.591 46.0654 130.588 46.1045 130.584V131C46.0439 131.018 45.9805 131.03 45.9141 131.038C45.8496 131.046 45.7793 131.05 45.7031 131.05C45.457 131.05 45.29 130.987 45.2021 130.862C45.1143 130.735 45.0703 130.571 45.0703 130.37V128.293H44.6455V127.862H45.0703V126.986ZM47.1348 126.682H47.6621V128.287C47.7871 128.129 47.8994 128.018 47.999 127.953C48.1689 127.842 48.3809 127.786 48.6348 127.786C49.0898 127.786 49.3984 127.945 49.5605 128.264C49.6484 128.438 49.6924 128.679 49.6924 128.987V131H49.1504V129.022C49.1504 128.792 49.1211 128.623 49.0625 128.516C48.9668 128.344 48.7871 128.258 48.5234 128.258C48.3047 128.258 48.1064 128.333 47.9287 128.483C47.751 128.634 47.6621 128.918 47.6621 129.336V131H47.1348V126.682ZM50.9893 127.862H51.4902V128.404C51.5312 128.299 51.6318 128.171 51.792 128.021C51.9521 127.868 52.1367 127.792 52.3457 127.792C52.3555 127.792 52.3721 127.793 52.3955 127.795C52.4189 127.797 52.459 127.801 52.5156 127.807V128.363C52.4844 128.357 52.4551 128.354 52.4277 128.352C52.4023 128.35 52.374 128.349 52.3428 128.349C52.0771 128.349 51.873 128.435 51.7305 128.606C51.5879 128.776 51.5166 128.973 51.5166 129.195V131H50.9893V127.862ZM54 127.862V129.945C54 130.105 54.0254 130.236 54.0762 130.338C54.1699 130.525 54.3447 130.619 54.6006 130.619C54.9678 130.619 55.2178 130.455 55.3506 130.127C55.4229 129.951 55.459 129.71 55.459 129.403V127.862H55.9863V131H55.4883L55.4941 130.537C55.4258 130.656 55.3408 130.757 55.2393 130.839C55.0381 131.003 54.7939 131.085 54.5068 131.085C54.0596 131.085 53.7549 130.936 53.5928 130.637C53.5049 130.477 53.4609 130.263 53.4609 129.995V127.862H54Z" fill="white"/>
<path opacity="0.9" d="M29.9756 135.309C30.971 135.309 31.6908 135.719 32.1348 136.539C32.4785 137.172 32.6504 138.041 32.6504 139.144C32.6504 140.189 32.4946 141.054 32.1831 141.738C31.7319 142.719 30.9943 143.209 29.9702 143.209C29.0464 143.209 28.3589 142.808 27.9077 142.006C27.5317 141.337 27.3438 140.438 27.3438 139.31C27.3438 138.436 27.4565 137.686 27.6821 137.06C28.1047 135.892 28.8691 135.309 29.9756 135.309ZM29.9648 142.329C30.4661 142.329 30.8654 142.107 31.1626 141.663C31.4598 141.219 31.6084 140.391 31.6084 139.181C31.6084 138.307 31.501 137.59 31.2861 137.027C31.0713 136.462 30.6541 136.179 30.0347 136.179C29.4653 136.179 29.0482 136.447 28.7832 136.984C28.5218 137.518 28.3911 138.306 28.3911 139.348C28.3911 140.132 28.4753 140.762 28.6436 141.238C28.9014 141.965 29.3418 142.329 29.9648 142.329ZM34.9819 141.04C35.0464 141.591 35.3024 141.972 35.75 142.184C35.9792 142.291 36.2441 142.345 36.5449 142.345C37.1178 142.345 37.5422 142.162 37.8179 141.797C38.0936 141.432 38.2314 141.027 38.2314 140.583C38.2314 140.046 38.0667 139.631 37.7373 139.337C37.4115 139.043 37.0194 138.896 36.561 138.896C36.228 138.896 35.9416 138.961 35.7017 139.09C35.4653 139.219 35.263 139.398 35.0947 139.627L34.2568 139.579L34.8423 135.438H38.8384V136.372H35.5674L35.2397 138.51C35.4188 138.374 35.5889 138.272 35.75 138.204C36.0365 138.085 36.3677 138.026 36.7437 138.026C37.4491 138.026 38.047 138.254 38.5376 138.708C39.0282 139.163 39.2734 139.74 39.2734 140.438C39.2734 141.165 39.0479 141.806 38.5967 142.361C38.1491 142.916 37.4329 143.193 36.4482 143.193C35.8216 143.193 35.2666 143.018 34.7832 142.667C34.3034 142.312 34.0348 141.77 33.9775 141.04H34.9819ZM42.749 135.11H43.5654L41.0625 143H40.2461L42.749 135.11ZM44.1514 143C44.1872 142.338 44.3232 141.761 44.5596 141.271C44.7995 140.78 45.265 140.334 45.9561 139.933L46.9873 139.337C47.4492 139.068 47.7733 138.839 47.9595 138.649C48.2531 138.352 48.3999 138.012 48.3999 137.629C48.3999 137.181 48.2656 136.827 47.9971 136.565C47.7285 136.3 47.3704 136.168 46.9229 136.168C46.2604 136.168 45.8021 136.419 45.5479 136.92C45.4118 137.188 45.3366 137.561 45.3223 138.037H44.3394C44.3501 137.368 44.4736 136.821 44.71 136.399C45.1289 135.654 45.8683 135.282 46.9282 135.282C47.8091 135.282 48.4518 135.52 48.8564 135.996C49.2646 136.472 49.4688 137.002 49.4688 137.586C49.4688 138.202 49.2521 138.728 48.8188 139.165C48.5682 139.419 48.1188 139.727 47.4707 140.089L46.7349 140.497C46.384 140.69 46.1082 140.875 45.9077 141.05C45.5496 141.362 45.3241 141.707 45.231 142.087H49.4312V143H44.1514ZM51.7896 141.04C51.854 141.591 52.11 141.972 52.5576 142.184C52.7868 142.291 53.0518 142.345 53.3525 142.345C53.9255 142.345 54.3498 142.162 54.6255 141.797C54.9012 141.432 55.0391 141.027 55.0391 140.583C55.0391 140.046 54.8743 139.631 54.5449 139.337C54.2191 139.043 53.827 138.896 53.3687 138.896C53.0356 138.896 52.7492 138.961 52.5093 139.09C52.2729 139.219 52.0706 139.398 51.9023 139.627L51.0645 139.579L51.6499 135.438H55.646V136.372H52.375L52.0474 138.51C52.2264 138.374 52.3965 138.272 52.5576 138.204C52.8441 138.085 53.1753 138.026 53.5513 138.026C54.2567 138.026 54.8547 138.254 55.3452 138.708C55.8358 139.163 56.0811 139.74 56.0811 140.438C56.0811 141.165 55.8555 141.806 55.4043 142.361C54.9567 142.916 54.2406 143.193 53.2559 143.193C52.6292 143.193 52.0742 143.018 51.5908 142.667C51.111 142.312 50.8424 141.77 50.7852 141.04H51.7896Z" fill="white"/>
<rect x="27" y="71" width="33" height="22" rx="5" fill="url(#paint1_radial_12_0)"/>
<path fill-rule="evenodd" clip-rule="evenodd" d="M43.5 71.2189L39.8333 76.9683C39.8333 76.9683 41.3 81.9989 39.8333 86.3109L43.5 92.7789L47.1666 86.3109C47.1666 86.3109 45.7 82.7176 47.1666 76.9683C47.1666 76.9683 43.5 71.2189 43.5 71.2189Z" stroke="#C7C7B6" stroke-width="1.3" stroke-linejoin="bevel"/>
<path d="M27 77.2324H39.8333" stroke="#C7C7B6" stroke-width="1.3" stroke-linejoin="bevel"/>
<path d="M46.7996 77.2324H59.9996" stroke="#C7C7B6" stroke-width="1.3" stroke-linejoin="bevel"/>
<path d="M27 86.032H39.8333" stroke="#C7C7B6" stroke-width="1.3" stroke-linejoin="bevel"/>
<path d="M46.7996 86.032H59.9996" stroke="#C7C7B6" stroke-width="1.3" stroke-linejoin="bevel"/>
<path d="M279.843 96.0823C284.945 90.6462 284.675 82.1027 279.239 77" stroke="#FBFBFB" stroke-width="1.5"/>
<path d="M275.958 94.0441C279.971 89.7693 279.758 83.0509 275.483 79.0382" stroke="#FBFBFB" stroke-width="1.5"/>
<path d="M271.894 92.1784C274.812 89.0691 274.658 84.1825 271.548 81.2639" stroke="#FBFBFB" stroke-width="1.5"/>
<path d="M267.575 90.4524C269.571 88.3265 269.465 84.9854 267.339 82.9899" stroke="#FBFBFB" stroke-width="1.5"/>
<defs>
<linearGradient id="paint0_linear_12_0" x1="158.586" y1="-30.5053" x2="165.299" y2="207.036" gradientUnits="userSpaceOnUse">
<stop stop-color="#9C2CF3"/>
<stop offset="1" stop-color="#3A49F9"/>
</linearGradient>
<radialGradient id="paint1_radial_12_0" cx="0" cy="0" r="1" gradientUnits="userSpaceOnUse" gradientTransform="translate(45.9503 79.0139) rotate(141.302) scale(22.37 22.2003)">
<stop stop-color="white"/>
<stop offset="1" stop-color="#DDDCDA"/>
</radialGradient>
</defs>
</svg>
